<svg width="951" height="1026" viewBox="0 0 951 1026" fill="none" xmlns="http://www.w3.org/2000/svg">
<g opacity="0.4">
<path d="M336.27 938.077C331.085 938.077 326.882 933.897 326.882 928.741C326.882 923.586 331.085 919.406 336.27 919.406C341.454 919.406 345.658 923.586 345.658 928.741C345.658 933.881 341.454 938.077 336.27 938.077Z" stroke="#04D361" stroke-width="3.50092" stroke-miterlimit="10" stroke-linecap="round" stroke-linejoin="round"/>
<path d="M329.793 935.49L323.154 942.076" stroke="#04D361" stroke-width="3.50092" stroke-miterlimit="10" stroke-linecap="round" stroke-linejoin="round"/>
<path d="M317.744 272.863L307.867 282.684" stroke="#04D361" stroke-width="3.50092" stroke-miterlimit="10" stroke-linecap="round" stroke-linejoin="round"/>
<path d="M317.744 282.684L307.867 272.863" stroke="#04D361" stroke-width="3.50092" stroke-miterlimit="10" stroke-linecap="round" stroke-linejoin="round"/>
<path d="M133.823 842.519L123.946 852.341" stroke="#04D361" stroke-width="3.50092" stroke-miterlimit="10" stroke-linecap="round" stroke-linejoin="round"/>
<path d="M133.823 852.341L123.946 842.519" stroke="#04D361" stroke-width="3.50092" stroke-miterlimit="10" stroke-linecap="round" stroke-linejoin="round"/>
<path d="M16.3717 280.924L2.40415 280.924" stroke="#04D361" stroke-width="3.50092" stroke-miterlimit="10" stroke-linecap="round" stroke-linejoin="round"/>
<path d="M9.38934 287.886L9.38934 273.98" stroke="#04D361" stroke-width="3.50092" stroke-miterlimit="10" stroke-linecap="round" stroke-linejoin="round"/>
<path d="M246.906 93.3993C242.228 93.3993 238.417 89.626 238.417 84.9582C238.417 80.3066 242.212 76.517 246.906 76.517C251.583 76.517 255.394 80.2903 255.394 84.9582C255.378 89.626 251.583 93.3993 246.906 93.3993Z" stroke="#04D361" stroke-width="3.50092" stroke-miterlimit="10" stroke-linecap="round" stroke-linejoin="round"/>
<path d="M466.692 590.148C462.015 590.148 458.204 586.374 458.204 581.706C458.204 577.055 461.998 573.265 466.692 573.265C471.37 573.265 475.181 577.039 475.181 581.706C475.165 586.374 471.37 590.148 466.692 590.148Z" stroke="#04D361" stroke-width="3.50092" stroke-miterlimit="10" stroke-linecap="round" stroke-linejoin="round"/>
<path d="M20.5979 713.979C15.9203 713.979 12.1094 710.206 12.1094 705.538C12.1094 700.887 15.9039 697.097 20.5979 697.097C25.2756 697.097 29.0864 700.87 29.0864 705.538C29.0701 710.206 25.2756 713.979 20.5979 713.979Z" stroke="#04D361" stroke-width="3.50092" stroke-miterlimit="10" stroke-linecap="round" stroke-linejoin="round"/>
<path d="M129.8 5.05754C129.8 6.74596 131.176 8.11471 132.874 8.11471C134.572 8.11471 135.948 6.74596 135.948 5.05754C135.948 3.36911 134.572 2.00037 132.874 2.00037C131.176 2.00037 129.8 3.36911 129.8 5.05754Z" fill="#9871F5"/>
<path d="M129.8 26.4125C129.8 28.1009 131.176 29.4696 132.874 29.4696C134.572 29.4696 135.948 28.1009 135.948 26.4125C135.948 24.724 134.572 23.3553 132.874 23.3553C131.176 23.3553 129.8 24.724 129.8 26.4125Z" fill="#9871F5"/>
<path d="M129.8 47.748C129.8 49.4364 131.176 50.8051 132.874 50.8051C134.572 50.8051 135.948 49.4364 135.948 47.748C135.948 46.0595 134.572 44.6908 132.874 44.6908C131.176 44.6908 129.8 46.0595 129.8 47.748Z" fill="#9871F5"/>
<path d="M129.8 69.1022C129.8 70.7906 131.176 72.1594 132.874 72.1594C134.572 72.1594 135.948 70.7906 135.948 69.1022C135.948 67.4138 134.572 66.045 132.874 66.045C131.176 66.045 129.8 67.4138 129.8 69.1022Z" fill="#9871F5"/>
<path d="M129.8 90.4393C129.8 92.1277 131.176 93.4965 132.874 93.4965C134.572 93.4965 135.948 92.1277 135.948 90.4393C135.948 88.7509 134.572 87.3821 132.874 87.3821C131.176 87.3821 129.8 88.7509 129.8 90.4393Z" fill="#9871F5"/>
<path d="M129.8 111.793C129.8 113.481 131.176 114.85 132.874 114.85C134.572 114.85 135.948 113.481 135.948 111.793C135.948 110.104 134.572 108.736 132.874 108.736C131.176 108.736 129.8 110.104 129.8 111.793Z" fill="#9871F5"/>
<path d="M108.341 5.05729C108.341 6.74572 109.718 8.11446 111.416 8.11446C113.113 8.11446 114.49 6.74572 114.49 5.05729C114.49 3.36886 113.113 2.00012 111.416 2.00012C109.718 2.00012 108.341 3.36886 108.341 5.05729Z" fill="#9871F5"/>
<path d="M108.341 26.4123C108.341 28.1007 109.718 29.4694 111.416 29.4694C113.113 29.4694 114.49 28.1007 114.49 26.4123C114.49 24.7238 113.113 23.3551 111.416 23.3551C109.718 23.3551 108.341 24.7238 108.341 26.4123Z" fill="#9871F5"/>
<path d="M108.341 47.7485C108.341 49.4369 109.718 50.8056 111.416 50.8056C113.113 50.8056 114.49 49.4369 114.49 47.7485C114.49 46.06 113.113 44.6913 111.416 44.6913C109.718 44.6913 108.341 46.06 108.341 47.7485Z" fill="#9871F5"/>
<path d="M108.341 69.1025C108.341 70.7909 109.718 72.1597 111.416 72.1597C113.113 72.1597 114.49 70.7909 114.49 69.1025C114.49 67.4141 113.113 66.0453 111.416 66.0453C109.718 66.0453 108.341 67.4141 108.341 69.1025Z" fill="#9871F5"/>
<path d="M108.341 90.4395C108.341 92.1279 109.718 93.4966 111.416 93.4966C113.113 93.4966 114.49 92.1279 114.49 90.4395C114.49 88.7511 113.113 87.3823 111.416 87.3823C109.718 87.3823 108.341 88.7511 108.341 90.4395Z" fill="#9871F5"/>
<path d="M108.341 111.793C108.341 113.481 109.718 114.85 111.416 114.85C113.113 114.85 114.49 113.481 114.49 111.793C114.49 110.104 113.113 108.736 111.416 108.736C109.718 108.736 108.341 110.104 108.341 111.793Z" fill="#9871F5"/>
<path d="M86.8667 5.05729C86.8667 6.74572 88.2431 8.11446 89.9409 8.11446C91.6388 8.11446 93.0153 6.74572 93.0153 5.05729C93.0153 3.36886 91.6388 2.00012 89.9409 2.00012C88.2431 2.00012 86.8667 3.36886 86.8667 5.05729Z" fill="#9871F5"/>
<path d="M86.8667 26.4123C86.8667 28.1007 88.2431 29.4694 89.9409 29.4694C91.6388 29.4694 93.0153 28.1007 93.0153 26.4123C93.0153 24.7238 91.6388 23.3551 89.9409 23.3551C88.2431 23.3551 86.8667 24.7238 86.8667 26.4123Z" fill="#9871F5"/>
<path d="M86.8667 47.7485C86.8667 49.4369 88.2431 50.8056 89.9409 50.8056C91.6388 50.8056 93.0153 49.4369 93.0153 47.7485C93.0153 46.06 91.6388 44.6913 89.9409 44.6913C88.2431 44.6913 86.8667 46.06 86.8667 47.7485Z" fill="#9871F5"/>
<path d="M86.8667 69.1025C86.8667 70.7909 88.2431 72.1597 89.9409 72.1597C91.6388 72.1597 93.0153 70.7909 93.0153 69.1025C93.0153 67.4141 91.6388 66.0453 89.9409 66.0453C88.2431 66.0453 86.8667 67.4141 86.8667 69.1025Z" fill="#9871F5"/>
<path d="M86.8667 90.4395C86.8667 92.1279 88.2431 93.4966 89.9409 93.4966C91.6388 93.4966 93.0153 92.1279 93.0153 90.4395C93.0153 88.7511 91.6388 87.3823 89.9409 87.3823C88.2431 87.3823 86.8667 88.7511 86.8667 90.4395Z" fill="#9871F5"/>
<path d="M86.8667 111.793C86.8667 113.481 88.2431 114.85 89.9409 114.85C91.6388 114.85 93.0153 113.481 93.0153 111.793C93.0153 110.104 91.6388 108.736 89.9409 108.736C88.2431 108.736 86.8667 110.104 86.8667 111.793Z" fill="#9871F5"/>
<path d="M65.4084 5.05729C65.4084 6.74572 66.7849 8.11446 68.4828 8.11446C70.1806 8.11446 71.5571 6.74572 71.5571 5.05729C71.5571 3.36886 70.1806 2.00012 68.4828 2.00012C66.7849 2.00012 65.4084 3.36886 65.4084 5.05729Z" fill="#9871F5"/>
<path d="M65.4084 26.4123C65.4084 28.1007 66.7849 29.4694 68.4828 29.4694C70.1806 29.4694 71.5571 28.1007 71.5571 26.4123C71.5571 24.7238 70.1806 23.3551 68.4828 23.3551C66.7849 23.3551 65.4084 24.7238 65.4084 26.4123Z" fill="#9871F5"/>
<path d="M65.4084 47.7485C65.4084 49.4369 66.7849 50.8056 68.4828 50.8056C70.1806 50.8056 71.5571 49.4369 71.5571 47.7485C71.5571 46.06 70.1806 44.6913 68.4828 44.6913C66.7849 44.6913 65.4084 46.06 65.4084 47.7485Z" fill="#9871F5"/>
<path d="M65.4084 69.1025C65.4084 70.7909 66.7849 72.1597 68.4828 72.1597C70.1806 72.1597 71.5571 70.7909 71.5571 69.1025C71.5571 67.4141 70.1806 66.0453 68.4828 66.0453C66.7849 66.0453 65.4084 67.4141 65.4084 69.1025Z" fill="#9871F5"/>
<path d="M65.4084 90.4395C65.4084 92.1279 66.7849 93.4966 68.4828 93.4966C70.1806 93.4966 71.5571 92.1279 71.5571 90.4395C71.5571 88.7511 70.1806 87.3823 68.4828 87.3823C66.7849 87.3823 65.4084 88.7511 65.4084 90.4395Z" fill="#9871F5"/>
<path d="M65.4084 111.793C65.4084 113.481 66.7849 114.85 68.4828 114.85C70.1806 114.85 71.5571 113.481 71.5571 111.793C71.5571 110.104 70.1806 108.736 68.4828 108.736C66.7849 108.736 65.4084 110.104 65.4084 111.793Z" fill="#9871F5"/>
<path d="M343.966 709.409C343.966 711.098 345.342 712.466 347.04 712.466C348.738 712.466 350.114 711.098 350.114 709.409C350.114 707.721 348.738 706.352 347.04 706.352C345.342 706.352 343.966 707.721 343.966 709.409Z" fill="#9871F5"/>
<path d="M343.966 730.748C343.966 732.436 345.342 733.805 347.04 733.805C348.738 733.805 350.115 732.436 350.115 730.748C350.115 729.06 348.738 727.691 347.04 727.691C345.342 727.691 343.966 729.06 343.966 730.748Z" fill="#9871F5"/>
<path d="M343.966 752.099C343.966 753.787 345.342 755.156 347.04 755.156C348.738 755.156 350.115 753.787 350.115 752.099C350.115 750.411 348.738 749.042 347.04 749.042C345.342 749.042 343.966 750.411 343.966 752.099Z" fill="#9871F5"/>
<path d="M322.491 709.409C322.491 711.097 323.868 712.466 325.566 712.466C327.263 712.466 328.64 711.097 328.64 709.409C328.64 707.72 327.263 706.351 325.566 706.351C323.868 706.351 322.491 707.72 322.491 709.409Z" fill="#9871F5"/>
<path d="M322.491 730.748C322.491 732.437 323.868 733.805 325.566 733.805C327.263 733.805 328.64 732.437 328.64 730.748C328.64 729.06 327.263 727.691 325.566 727.691C323.868 727.691 322.491 729.06 322.491 730.748Z" fill="#9871F5"/>
<path d="M322.491 752.099C322.491 753.787 323.868 755.156 325.566 755.156C327.263 755.156 328.64 753.787 328.64 752.099C328.64 750.411 327.263 749.042 325.566 749.042C323.868 749.042 322.491 750.411 322.491 752.099Z" fill="#9871F5"/>
<path d="M437.861 259.008C437.861 260.696 439.237 262.065 440.935 262.065C442.633 262.065 444.01 260.696 444.01 259.008C444.01 257.319 442.633 255.951 440.935 255.951C439.237 255.951 437.861 257.319 437.861 259.008Z" fill="#9871F5"/>
<path d="M437.861 280.345C437.861 282.033 439.237 283.402 440.935 283.402C442.633 283.402 444.01 282.033 444.01 280.345C444.01 278.656 442.633 277.287 440.935 277.287C439.237 277.287 437.861 278.656 437.861 280.345Z" fill="#9871F5"/>
<path d="M437.861 301.698C437.861 303.386 439.237 304.755 440.935 304.755C442.633 304.755 444.01 303.386 444.01 301.698C444.01 300.009 442.633 298.641 440.935 298.641C439.237 298.641 437.861 300.009 437.861 301.698Z" fill="#9871F5"/>
<path d="M416.386 259.008C416.386 260.696 417.763 262.065 419.46 262.065C421.158 262.065 422.535 260.696 422.535 259.008C422.535 257.319 421.158 255.95 419.46 255.95C417.763 255.95 416.386 257.319 416.386 259.008Z" fill="#9871F5"/>
<path d="M416.386 280.345C416.386 282.033 417.763 283.402 419.46 283.402C421.158 283.402 422.535 282.033 422.535 280.345C422.535 278.656 421.158 277.287 419.46 277.287C417.763 277.287 416.386 278.656 416.386 280.345Z" fill="#9871F5"/>
<path d="M416.386 301.699C416.386 303.387 417.763 304.756 419.46 304.756C421.158 304.756 422.535 303.387 422.535 301.699C422.535 300.01 421.158 298.642 419.46 298.642C417.763 298.642 416.386 300.01 416.386 301.699Z" fill="#9871F5"/>
<path d="M129.8 1022.94C129.8 1024.63 131.176 1026 132.874 1026C134.572 1026 135.948 1024.63 135.948 1022.94C135.948 1021.25 134.572 1019.89 132.874 1019.89C131.176 1019.89 129.8 1021.25 129.8 1022.94Z" fill="#9871F5"/>
<path d="M108.325 1022.94C108.325 1024.63 109.701 1026 111.399 1026C113.097 1026 114.474 1024.63 114.474 1022.94C114.474 1021.25 113.097 1019.89 111.399 1019.89C109.701 1019.89 108.325 1021.25 108.325 1022.94Z" fill="#9871F5"/>
<path d="M86.8665 1022.94C86.8665 1024.63 88.2429 1026 89.9408 1026C91.6387 1026 93.0151 1024.63 93.0151 1022.94C93.0151 1021.25 91.6387 1019.89 89.9408 1019.89C88.2429 1019.89 86.8665 1021.25 86.8665 1022.94Z" fill="#9871F5"/>
<path d="M65.3917 1022.94C65.3917 1024.63 66.7681 1026 68.466 1026C70.1639 1026 71.5403 1024.63 71.5403 1022.94C71.5403 1021.25 70.1639 1019.89 68.466 1019.89C66.7681 1019.89 65.3917 1021.25 65.3917 1022.94Z" fill="#9871F5"/>
<path d="M43.9335 1022.94C43.9335 1024.63 45.3099 1026 47.0078 1026C48.7057 1026 50.0821 1024.63 50.0821 1022.94C50.0821 1021.25 48.7057 1019.89 47.0078 1019.89C45.3099 1019.89 43.9335 1021.25 43.9335 1022.94Z" fill="#9871F5"/>
<path d="M22.4589 1022.94C22.4589 1024.63 23.8353 1026 25.5332 1026C27.2311 1026 28.6075 1024.63 28.6075 1022.94C28.6075 1021.25 27.2311 1019.89 25.5332 1019.89C23.8353 1019.89 22.4589 1021.25 22.4589 1022.94Z" fill="#9871F5"/>
<path d="M1.00012 1022.94C1.00012 1024.63 2.37654 1026 4.07443 1026C5.77232 1026 7.14874 1024.63 7.14874 1022.94C7.14874 1021.25 5.77232 1019.89 4.07443 1019.89C2.37654 1019.89 1.00012 1021.25 1.00012 1022.94Z" fill="#9871F5"/>
<path d="M129.8 1001.59C129.8 1003.28 131.176 1004.65 132.874 1004.65C134.572 1004.65 135.948 1003.28 135.948 1001.59C135.948 999.901 134.572 998.533 132.874 998.533C131.176 998.533 129.8 999.901 129.8 1001.59Z" fill="#9871F5"/>
<path d="M108.325 1001.59C108.325 1003.28 109.701 1004.65 111.399 1004.65C113.097 1004.65 114.474 1003.28 114.474 1001.59C114.474 999.901 113.097 998.533 111.399 998.533C109.701 998.533 108.325 999.901 108.325 1001.59Z" fill="#9871F5"/>
<path d="M86.8665 1001.59C86.8665 1003.28 88.2429 1004.65 89.9408 1004.65C91.6387 1004.65 93.0151 1003.28 93.0151 1001.59C93.0151 999.901 91.6387 998.533 89.9408 998.533C88.2429 998.533 86.8665 999.901 86.8665 1001.59Z" fill="#9871F5"/>
<path d="M65.3917 1001.59C65.3917 1003.28 66.7681 1004.65 68.466 1004.65C70.1639 1004.65 71.5403 1003.28 71.5403 1001.59C71.5403 999.901 70.1639 998.533 68.466 998.533C66.7681 998.533 65.3917 999.901 65.3917 1001.59Z" fill="#9871F5"/>
<path d="M43.9335 1001.59C43.9335 1003.28 45.3099 1004.65 47.0078 1004.65C48.7057 1004.65 50.0821 1003.28 50.0821 1001.59C50.0821 999.901 48.7057 998.533 47.0078 998.533C45.3099 998.533 43.9335 999.901 43.9335 1001.59Z" fill="#9871F5"/>
<path d="M22.4589 1001.59C22.4589 1003.28 23.8353 1004.65 25.5332 1004.65C27.2311 1004.65 28.6075 1003.28 28.6075 1001.59C28.6075 999.901 27.2311 998.533 25.5332 998.533C23.8353 998.533 22.4589 999.901 22.4589 1001.59Z" fill="#9871F5"/>
<path d="M1.00012 1001.59C1.00012 1003.28 2.37654 1004.65 4.07443 1004.65C5.77232 1004.65 7.14874 1003.28 7.14874 1001.59C7.14874 999.901 5.77232 998.533 4.07443 998.533C2.37654 998.533 1.00012 999.901 1.00012 1001.59Z" fill="#9871F5"/>
<path d="M129.8 980.251C129.8 981.94 131.176 983.309 132.874 983.309C134.572 983.309 135.948 981.94 135.948 980.251C135.948 978.563 134.572 977.194 132.874 977.194C131.176 977.194 129.8 978.563 129.8 980.251Z" fill="#9871F5"/>
<path d="M108.325 980.252C108.325 981.94 109.701 983.309 111.399 983.309C113.097 983.309 114.474 981.94 114.474 980.252C114.474 978.563 113.097 977.195 111.399 977.195C109.701 977.195 108.325 978.563 108.325 980.252Z" fill="#9871F5"/>
<path d="M86.8665 980.252C86.8665 981.94 88.2429 983.309 89.9408 983.309C91.6387 983.309 93.0151 981.94 93.0151 980.252C93.0151 978.563 91.6387 977.195 89.9408 977.195C88.2429 977.195 86.8665 978.563 86.8665 980.252Z" fill="#9871F5"/>
<path d="M65.3917 980.252C65.3917 981.94 66.7681 983.309 68.4659 983.309C70.1638 983.309 71.5402 981.94 71.5402 980.252C71.5402 978.563 70.1638 977.195 68.4659 977.195C66.7681 977.195 65.3917 978.563 65.3917 980.252Z" fill="#9871F5"/>
<path d="M43.9335 980.252C43.9335 981.94 45.3099 983.309 47.0078 983.309C48.7057 983.309 50.0821 981.94 50.0821 980.252C50.0821 978.563 48.7057 977.195 47.0078 977.195C45.3099 977.195 43.9335 978.563 43.9335 980.252Z" fill="#9871F5"/>
<path d="M22.4589 980.252C22.4589 981.94 23.8353 983.309 25.5332 983.309C27.2311 983.309 28.6075 981.94 28.6075 980.252C28.6075 978.563 27.2311 977.195 25.5332 977.195C23.8353 977.195 22.4589 978.563 22.4589 980.252Z" fill="#9871F5"/>
<path d="M1.00012 980.252C1.00012 981.94 2.37654 983.309 4.07443 983.309C5.77232 983.309 7.14874 981.94 7.14874 980.252C7.14874 978.563 5.77232 977.195 4.07443 977.195C2.37654 977.195 1.00012 978.563 1.00012 980.252Z" fill="#9871F5"/>
<path d="M129.799 958.899C129.799 960.587 131.175 961.956 132.873 961.956C134.571 961.956 135.947 960.587 135.947 958.899C135.947 957.21 134.571 955.842 132.873 955.842C131.175 955.842 129.799 957.21 129.799 958.899Z" fill="#9871F5"/>
<path d="M108.325 958.898C108.325 960.587 109.701 961.956 111.399 961.956C113.097 961.956 114.474 960.587 114.474 958.898C114.474 957.21 113.097 955.841 111.399 955.841C109.701 955.841 108.325 957.21 108.325 958.898Z" fill="#9871F5"/>
<path d="M86.8665 958.898C86.8665 960.587 88.2429 961.956 89.9408 961.956C91.6387 961.956 93.0151 960.587 93.0151 958.898C93.0151 957.21 91.6387 955.841 89.9408 955.841C88.2429 955.841 86.8665 957.21 86.8665 958.898Z" fill="#9871F5"/>
<path d="M65.3917 958.898C65.3917 960.587 66.7681 961.956 68.4659 961.956C70.1638 961.956 71.5402 960.587 71.5402 958.898C71.5402 957.21 70.1638 955.841 68.4659 955.841C66.7681 955.841 65.3917 957.21 65.3917 958.898Z" fill="#9871F5"/>
<path d="M43.9335 958.898C43.9335 960.587 45.3099 961.956 47.0078 961.956C48.7057 961.956 50.0821 960.587 50.0821 958.898C50.0821 957.21 48.7057 955.841 47.0078 955.841C45.3099 955.841 43.9335 957.21 43.9335 958.898Z" fill="#9871F5"/>
<path d="M22.4589 958.898C22.4589 960.587 23.8353 961.956 25.5332 961.956C27.2311 961.956 28.6075 960.587 28.6075 958.898C28.6075 957.21 27.2311 955.841 25.5332 955.841C23.8353 955.841 22.4589 957.21 22.4589 958.898Z" fill="#9871F5"/>
<path d="M1.00018 958.898C1.00018 960.587 2.3766 961.956 4.07449 961.956C5.77238 961.956 7.1488 960.587 7.1488 958.898C7.1488 957.21 5.77238 955.841 4.07449 955.841C2.3766 955.841 1.00018 957.21 1.00018 958.898Z" fill="#9871F5"/>
</g>
<g opacity="0.4">
<path d="M810.27 936.077C805.085 936.077 800.882 931.897 800.882 926.741C800.882 921.586 805.085 917.406 810.27 917.406C815.454 917.406 819.658 921.586 819.658 926.741C819.658 931.881 815.454 936.077 810.27 936.077Z" stroke="#04D361" stroke-width="3.50092" stroke-miterlimit="10" stroke-linecap="round" stroke-linejoin="round"/>
<path d="M803.793 933.49L797.154 940.076" stroke="#04D361" stroke-width="3.50092" stroke-miterlimit="10" stroke-linecap="round" stroke-linejoin="round"/>
<path d="M791.744 270.862L781.867 280.684" stroke="#04D361" stroke-width="3.50092" stroke-miterlimit="10" stroke-linecap="round" stroke-linejoin="round"/>
<path d="M791.744 280.684L781.867 270.862" stroke="#04D361" stroke-width="3.50092" stroke-miterlimit="10" stroke-linecap="round" stroke-linejoin="round"/>
<path d="M607.823 840.518L597.946 850.34" stroke="#04D361" stroke-width="3.50092" stroke-miterlimit="10" stroke-linecap="round" stroke-linejoin="round"/>
<path d="M607.823 850.34L597.946 840.518" stroke="#04D361" stroke-width="3.50092" stroke-miterlimit="10" stroke-linecap="round" stroke-linejoin="round"/>
<path d="M490.372 278.924L476.404 278.924" stroke="#04D361" stroke-width="3.50092" stroke-miterlimit="10" stroke-linecap="round" stroke-linejoin="round"/>
<path d="M483.389 285.886L483.389 271.98" stroke="#04D361" stroke-width="3.50092" stroke-miterlimit="10" stroke-linecap="round" stroke-linejoin="round"/>
<path d="M720.906 91.3992C716.228 91.3992 712.417 87.6259 712.417 82.958C712.417 78.3064 716.212 74.5168 720.906 74.5168C725.583 74.5168 729.394 78.2902 729.394 82.958C729.378 87.6259 725.583 91.3992 720.906 91.3992Z" stroke="#04D361" stroke-width="3.50092" stroke-miterlimit="10" stroke-linecap="round" stroke-linejoin="round"/>
<path d="M940.692 588.147C936.015 588.147 932.204 584.374 932.204 579.706C932.204 575.055 935.998 571.265 940.692 571.265C945.37 571.265 949.181 575.038 949.181 579.706C949.165 584.374 945.37 588.147 940.692 588.147Z" stroke="#04D361" stroke-width="3.50092" stroke-miterlimit="10" stroke-linecap="round" stroke-linejoin="round"/>
<path d="M494.598 711.979C489.92 711.979 486.109 708.206 486.109 703.538C486.109 698.887 489.904 695.097 494.598 695.097C499.276 695.097 503.086 698.87 503.086 703.538C503.07 708.206 499.276 711.979 494.598 711.979Z" stroke="#04D361" stroke-width="3.50092" stroke-miterlimit="10" stroke-linecap="round" stroke-linejoin="round"/>
<path d="M603.8 3.05741C603.8 4.74584 605.176 6.11458 606.874 6.11458C608.572 6.11458 609.948 4.74584 609.948 3.05741C609.948 1.36899 608.572 0.00024408 606.874 0.000244006C605.176 0.000243932 603.8 1.36899 603.8 3.05741Z" fill="#9871F5"/>
<path d="M603.8 24.4123C603.8 26.1008 605.176 27.4695 606.874 27.4695C608.572 27.4695 609.948 26.1008 609.948 24.4123C609.948 22.7239 608.572 21.3552 606.874 21.3552C605.176 21.3552 603.8 22.7239 603.8 24.4123Z" fill="#9871F5"/>
<path d="M603.8 45.7478C603.8 47.4363 605.176 48.805 606.874 48.805C608.572 48.805 609.948 47.4363 609.948 45.7478C609.948 44.0594 608.572 42.6907 606.874 42.6907C605.176 42.6907 603.8 44.0594 603.8 45.7478Z" fill="#9871F5"/>
<path d="M603.8 67.1021C603.8 68.7905 605.176 70.1593 606.874 70.1593C608.572 70.1593 609.948 68.7905 609.948 67.1021C609.948 65.4137 608.572 64.0449 606.874 64.0449C605.176 64.0449 603.8 65.4137 603.8 67.1021Z" fill="#9871F5"/>
<path d="M603.8 88.4392C603.8 90.1276 605.176 91.4963 606.874 91.4963C608.572 91.4963 609.948 90.1276 609.948 88.4392C609.948 86.7508 608.572 85.382 606.874 85.382C605.176 85.382 603.8 86.7508 603.8 88.4392Z" fill="#9871F5"/>
<path d="M603.8 109.793C603.8 111.481 605.176 112.85 606.874 112.85C608.572 112.85 609.948 111.481 609.948 109.793C609.948 108.104 608.572 106.736 606.874 106.736C605.176 106.736 603.8 108.104 603.8 109.793Z" fill="#9871F5"/>
<path d="M582.341 3.05717C582.341 4.7456 583.718 6.11434 585.415 6.11434C587.113 6.11434 588.49 4.7456 588.49 3.05717C588.49 1.36874 587.113 -6.01651e-08 585.415 -1.34382e-07C583.718 -2.08599e-07 582.341 1.36874 582.341 3.05717Z" fill="#9871F5"/>
<path d="M582.341 24.4121C582.341 26.1006 583.718 27.4693 585.415 27.4693C587.113 27.4693 588.49 26.1006 588.49 24.4121C588.49 22.7237 587.113 21.355 585.415 21.355C583.718 21.355 582.341 22.7237 582.341 24.4121Z" fill="#9871F5"/>
<path d="M582.341 45.7483C582.341 47.4368 583.718 48.8055 585.415 48.8055C587.113 48.8055 588.49 47.4368 588.49 45.7483C588.49 44.0599 587.113 42.6912 585.415 42.6912C583.718 42.6912 582.341 44.0599 582.341 45.7483Z" fill="#9871F5"/>
<path d="M582.341 67.1024C582.341 68.7908 583.718 70.1596 585.415 70.1596C587.113 70.1596 588.49 68.7908 588.49 67.1024C588.49 65.414 587.113 64.0452 585.415 64.0452C583.718 64.0452 582.341 65.414 582.341 67.1024Z" fill="#9871F5"/>
<path d="M582.341 88.4394C582.341 90.1278 583.718 91.4965 585.415 91.4965C587.113 91.4965 588.49 90.1278 588.49 88.4394C588.49 86.7509 587.113 85.3822 585.415 85.3822C583.718 85.3822 582.341 86.7509 582.341 88.4394Z" fill="#9871F5"/>
<path d="M582.341 109.793C582.341 111.481 583.718 112.85 585.415 112.85C587.113 112.85 588.49 111.481 588.49 109.793C588.49 108.104 587.113 106.735 585.415 106.735C583.718 106.735 582.341 108.104 582.341 109.793Z" fill="#9871F5"/>
<path d="M560.867 3.05717C560.867 4.7456 562.243 6.11434 563.941 6.11434C565.639 6.11434 567.015 4.7456 567.015 3.05717C567.015 1.36874 565.639 -6.01652e-08 563.941 -1.34382e-07C562.243 -2.086e-07 560.867 1.36874 560.867 3.05717Z" fill="#9871F5"/>
<path d="M560.867 24.4121C560.867 26.1006 562.243 27.4693 563.941 27.4693C565.639 27.4693 567.015 26.1006 567.015 24.4121C567.015 22.7237 565.639 21.355 563.941 21.355C562.243 21.355 560.867 22.7237 560.867 24.4121Z" fill="#9871F5"/>
<path d="M560.867 45.7483C560.867 47.4368 562.243 48.8055 563.941 48.8055C565.639 48.8055 567.015 47.4368 567.015 45.7483C567.015 44.0599 565.639 42.6912 563.941 42.6912C562.243 42.6912 560.867 44.0599 560.867 45.7483Z" fill="#9871F5"/>
<path d="M560.867 67.1024C560.867 68.7908 562.243 70.1596 563.941 70.1596C565.639 70.1596 567.015 68.7908 567.015 67.1024C567.015 65.414 565.639 64.0452 563.941 64.0452C562.243 64.0452 560.867 65.414 560.867 67.1024Z" fill="#9871F5"/>
<path d="M560.867 88.4394C560.867 90.1278 562.243 91.4965 563.941 91.4965C565.639 91.4965 567.015 90.1278 567.015 88.4394C567.015 86.7509 565.639 85.3822 563.941 85.3822C562.243 85.3822 560.867 86.7509 560.867 88.4394Z" fill="#9871F5"/>
<path d="M560.867 109.793C560.867 111.481 562.243 112.85 563.941 112.85C565.639 112.85 567.015 111.481 567.015 109.793C567.015 108.104 565.639 106.735 563.941 106.735C562.243 106.735 560.867 108.104 560.867 109.793Z" fill="#9871F5"/>
<path d="M539.408 3.05717C539.408 4.7456 540.785 6.11434 542.483 6.11434C544.181 6.11434 545.557 4.7456 545.557 3.05717C545.557 1.36874 544.181 -6.01653e-08 542.483 -1.34382e-07C540.785 -2.086e-07 539.408 1.36874 539.408 3.05717Z" fill="#9871F5"/>
<path d="M539.408 24.4121C539.408 26.1006 540.785 27.4693 542.483 27.4693C544.181 27.4693 545.557 26.1006 545.557 24.4121C545.557 22.7237 544.181 21.355 542.483 21.355C540.785 21.355 539.408 22.7237 539.408 24.4121Z" fill="#9871F5"/>
<path d="M539.408 45.7483C539.408 47.4368 540.785 48.8055 542.483 48.8055C544.181 48.8055 545.557 47.4368 545.557 45.7483C545.557 44.0599 544.181 42.6912 542.483 42.6912C540.785 42.6912 539.408 44.0599 539.408 45.7483Z" fill="#9871F5"/>
<path d="M539.408 67.1024C539.408 68.7908 540.785 70.1596 542.483 70.1596C544.181 70.1596 545.557 68.7908 545.557 67.1024C545.557 65.414 544.181 64.0452 542.483 64.0452C540.785 64.0452 539.408 65.414 539.408 67.1024Z" fill="#9871F5"/>
<path d="M539.408 88.4394C539.408 90.1278 540.785 91.4965 542.483 91.4965C544.181 91.4965 545.557 90.1278 545.557 88.4394C545.557 86.7509 544.181 85.3822 542.483 85.3822C540.785 85.3822 539.408 86.7509 539.408 88.4394Z" fill="#9871F5"/>
<path d="M539.408 109.793C539.408 111.481 540.785 112.85 542.483 112.85C544.181 112.85 545.557 111.481 545.557 109.793C545.557 108.104 544.181 106.735 542.483 106.735C540.785 106.735 539.408 108.104 539.408 109.793Z" fill="#9871F5"/>
<path d="M817.966 707.409C817.966 709.097 819.342 710.466 821.04 710.466C822.738 710.466 824.114 709.097 824.114 707.409C824.114 705.72 822.738 704.352 821.04 704.352C819.342 704.352 817.966 705.72 817.966 707.409Z" fill="#9871F5"/>
<path d="M817.966 728.748C817.966 730.436 819.342 731.805 821.04 731.805C822.738 731.805 824.115 730.436 824.115 728.748C824.115 727.059 822.738 725.691 821.04 725.691C819.342 725.691 817.966 727.059 817.966 728.748Z" fill="#9871F5"/>
<path d="M817.966 750.099C817.966 751.787 819.342 753.156 821.04 753.156C822.738 753.156 824.115 751.787 824.115 750.099C824.115 748.41 822.738 747.042 821.04 747.042C819.342 747.042 817.966 748.41 817.966 750.099Z" fill="#9871F5"/>
<path d="M796.491 707.409C796.491 709.097 797.868 710.466 799.566 710.466C801.263 710.466 802.64 709.097 802.64 707.409C802.64 705.72 801.263 704.351 799.566 704.351C797.868 704.351 796.491 705.72 796.491 707.409Z" fill="#9871F5"/>
<path d="M796.491 728.748C796.491 730.437 797.868 731.805 799.566 731.805C801.263 731.805 802.64 730.437 802.64 728.748C802.64 727.06 801.263 725.691 799.566 725.691C797.868 725.691 796.491 727.06 796.491 728.748Z" fill="#9871F5"/>
<path d="M796.491 750.099C796.491 751.787 797.868 753.156 799.566 753.156C801.263 753.156 802.64 751.787 802.64 750.099C802.64 748.41 801.263 747.042 799.566 747.042C797.868 747.042 796.491 748.41 796.491 750.099Z" fill="#9871F5"/>
<path d="M911.861 257.008C911.861 258.696 913.237 260.065 914.935 260.065C916.633 260.065 918.01 258.696 918.01 257.008C918.01 255.319 916.633 253.951 914.935 253.951C913.237 253.951 911.861 255.319 911.861 257.008Z" fill="#9871F5"/>
<path d="M911.861 278.344C911.861 280.033 913.237 281.402 914.935 281.402C916.633 281.402 918.01 280.033 918.01 278.344C918.01 276.656 916.633 275.287 914.935 275.287C913.237 275.287 911.861 276.656 911.861 278.344Z" fill="#9871F5"/>
<path d="M911.861 299.698C911.861 301.386 913.237 302.755 914.935 302.755C916.633 302.755 918.01 301.386 918.01 299.698C918.01 298.009 916.633 296.641 914.935 296.641C913.237 296.641 911.861 298.009 911.861 299.698Z" fill="#9871F5"/>
<path d="M890.386 257.007C890.386 258.696 891.763 260.065 893.46 260.065C895.158 260.065 896.535 258.696 896.535 257.007C896.535 255.319 895.158 253.95 893.46 253.95C891.763 253.95 890.386 255.319 890.386 257.007Z" fill="#9871F5"/>
<path d="M890.386 278.344C890.386 280.033 891.763 281.402 893.46 281.402C895.158 281.402 896.535 280.033 896.535 278.344C896.535 276.656 895.158 275.287 893.46 275.287C891.763 275.287 890.386 276.656 890.386 278.344Z" fill="#9871F5"/>
<path d="M890.386 299.699C890.386 301.387 891.763 302.756 893.46 302.756C895.158 302.756 896.535 301.387 896.535 299.699C896.535 298.01 895.158 296.641 893.46 296.641C891.763 296.641 890.386 298.01 890.386 299.699Z" fill="#9871F5"/>
<path d="M603.8 1020.94C603.8 1022.63 605.176 1024 606.874 1024C608.572 1024 609.948 1022.63 609.948 1020.94C609.948 1019.25 608.572 1017.89 606.874 1017.89C605.176 1017.89 603.8 1019.25 603.8 1020.94Z" fill="#9871F5"/>
<path d="M582.325 1020.94C582.325 1022.63 583.701 1024 585.399 1024C587.097 1024 588.474 1022.63 588.474 1020.94C588.474 1019.25 587.097 1017.89 585.399 1017.89C583.701 1017.89 582.325 1019.25 582.325 1020.94Z" fill="#9871F5"/>
<path d="M560.867 1020.94C560.867 1022.63 562.243 1024 563.941 1024C565.639 1024 567.015 1022.63 567.015 1020.94C567.015 1019.25 565.639 1017.89 563.941 1017.89C562.243 1017.89 560.867 1019.25 560.867 1020.94Z" fill="#9871F5"/>
<path d="M539.392 1020.94C539.392 1022.63 540.768 1024 542.466 1024C544.164 1024 545.54 1022.63 545.54 1020.94C545.54 1019.25 544.164 1017.89 542.466 1017.89C540.768 1017.89 539.392 1019.25 539.392 1020.94Z" fill="#9871F5"/>
<path d="M517.934 1020.94C517.934 1022.63 519.31 1024 521.008 1024C522.706 1024 524.082 1022.63 524.082 1020.94C524.082 1019.25 522.706 1017.89 521.008 1017.89C519.31 1017.89 517.934 1019.25 517.934 1020.94Z" fill="#9871F5"/>
<path d="M496.459 1020.94C496.459 1022.63 497.835 1024 499.533 1024C501.231 1024 502.608 1022.63 502.608 1020.94C502.608 1019.25 501.231 1017.89 499.533 1017.89C497.835 1017.89 496.459 1019.25 496.459 1020.94Z" fill="#9871F5"/>
<path d="M475 1020.94C475 1022.63 476.377 1024 478.074 1024C479.772 1024 481.149 1022.63 481.149 1020.94C481.149 1019.25 479.772 1017.89 478.074 1017.89C476.377 1017.89 475 1019.25 475 1020.94Z" fill="#9871F5"/>
<path d="M603.8 999.59C603.8 1001.28 605.176 1002.65 606.874 1002.65C608.572 1002.65 609.948 1001.28 609.948 999.59C609.948 997.901 608.572 996.533 606.874 996.533C605.176 996.533 603.8 997.901 603.8 999.59Z" fill="#9871F5"/>
<path d="M582.325 999.59C582.325 1001.28 583.701 1002.65 585.399 1002.65C587.097 1002.65 588.474 1001.28 588.474 999.59C588.474 997.901 587.097 996.533 585.399 996.533C583.701 996.533 582.325 997.901 582.325 999.59Z" fill="#9871F5"/>
<path d="M560.867 999.59C560.867 1001.28 562.243 1002.65 563.941 1002.65C565.639 1002.65 567.015 1001.28 567.015 999.59C567.015 997.901 565.639 996.533 563.941 996.533C562.243 996.533 560.867 997.901 560.867 999.59Z" fill="#9871F5"/>
<path d="M539.392 999.59C539.392 1001.28 540.768 1002.65 542.466 1002.65C544.164 1002.65 545.54 1001.28 545.54 999.59C545.54 997.901 544.164 996.533 542.466 996.533C540.768 996.533 539.392 997.901 539.392 999.59Z" fill="#9871F5"/>
<path d="M517.934 999.59C517.934 1001.28 519.31 1002.65 521.008 1002.65C522.706 1002.65 524.082 1001.28 524.082 999.59C524.082 997.901 522.706 996.533 521.008 996.533C519.31 996.533 517.934 997.901 517.934 999.59Z" fill="#9871F5"/>
<path d="M496.459 999.59C496.459 1001.28 497.835 1002.65 499.533 1002.65C501.231 1002.65 502.608 1001.28 502.608 999.59C502.608 997.901 501.231 996.533 499.533 996.533C497.835 996.533 496.459 997.901 496.459 999.59Z" fill="#9871F5"/>
<path d="M475 999.59C475 1001.28 476.377 1002.65 478.074 1002.65C479.772 1002.65 481.149 1001.28 481.149 999.59C481.149 997.901 479.772 996.533 478.074 996.533C476.377 996.533 475 997.901 475 999.59Z" fill="#9871F5"/>
<path d="M603.8 978.251C603.8 979.94 605.176 981.309 606.874 981.309C608.572 981.309 609.948 979.94 609.948 978.251C609.948 976.563 608.572 975.194 606.874 975.194C605.176 975.194 603.8 976.563 603.8 978.251Z" fill="#9871F5"/>
<path d="M582.325 978.252C582.325 979.94 583.701 981.309 585.399 981.309C587.097 981.309 588.474 979.94 588.474 978.252C588.474 976.563 587.097 975.194 585.399 975.194C583.701 975.194 582.325 976.563 582.325 978.252Z" fill="#9871F5"/>
<path d="M560.867 978.252C560.867 979.94 562.243 981.309 563.941 981.309C565.639 981.309 567.015 979.94 567.015 978.252C567.015 976.563 565.639 975.194 563.941 975.194C562.243 975.194 560.867 976.563 560.867 978.252Z" fill="#9871F5"/>
<path d="M539.392 978.252C539.392 979.94 540.768 981.309 542.466 981.309C544.164 981.309 545.54 979.94 545.54 978.252C545.54 976.563 544.164 975.194 542.466 975.194C540.768 975.194 539.392 976.563 539.392 978.252Z" fill="#9871F5"/>
<path d="M517.934 978.252C517.934 979.94 519.31 981.309 521.008 981.309C522.706 981.309 524.082 979.94 524.082 978.252C524.082 976.563 522.706 975.194 521.008 975.194C519.31 975.194 517.934 976.563 517.934 978.252Z" fill="#9871F5"/>
<path d="M496.459 978.252C496.459 979.94 497.835 981.309 499.533 981.309C501.231 981.309 502.608 979.94 502.608 978.252C502.608 976.563 501.231 975.194 499.533 975.194C497.835 975.194 496.459 976.563 496.459 978.252Z" fill="#9871F5"/>
<path d="M475 978.252C475 979.94 476.377 981.309 478.074 981.309C479.772 981.309 481.149 979.94 481.149 978.252C481.149 976.563 479.772 975.194 478.074 975.194C476.377 975.194 475 976.563 475 978.252Z" fill="#9871F5"/>
<path d="M603.799 956.899C603.799 958.587 605.175 959.956 606.873 959.956C608.571 959.956 609.947 958.587 609.947 956.899C609.947 955.21 608.571 953.842 606.873 953.842C605.175 953.842 603.799 955.21 603.799 956.899Z" fill="#9871F5"/>
<path d="M582.325 956.898C582.325 958.587 583.701 959.955 585.399 959.955C587.097 959.956 588.474 958.587 588.474 956.898C588.474 955.21 587.097 953.841 585.399 953.841C583.701 953.841 582.325 955.21 582.325 956.898Z" fill="#9871F5"/>
<path d="M560.867 956.898C560.867 958.587 562.243 959.955 563.941 959.955C565.639 959.956 567.015 958.587 567.015 956.898C567.015 955.21 565.639 953.841 563.941 953.841C562.243 953.841 560.867 955.21 560.867 956.898Z" fill="#9871F5"/>
<path d="M539.392 956.898C539.392 958.587 540.768 959.955 542.466 959.955C544.164 959.956 545.54 958.587 545.54 956.898C545.54 955.21 544.164 953.841 542.466 953.841C540.768 953.841 539.392 955.21 539.392 956.898Z" fill="#9871F5"/>
<path d="M517.934 956.898C517.934 958.587 519.31 959.955 521.008 959.955C522.706 959.956 524.082 958.587 524.082 956.898C524.082 955.21 522.706 953.841 521.008 953.841C519.31 953.841 517.934 955.21 517.934 956.898Z" fill="#9871F5"/>
<path d="M496.459 956.898C496.459 958.587 497.835 959.955 499.533 959.955C501.231 959.956 502.608 958.587 502.608 956.898C502.608 955.21 501.231 953.841 499.533 953.841C497.835 953.841 496.459 955.21 496.459 956.898Z" fill="#9871F5"/>
<path d="M475 956.898C475 958.587 476.377 959.955 478.074 959.955C479.772 959.956 481.149 958.587 481.149 956.898C481.149 955.21 479.772 953.841 478.074 953.841C476.377 953.841 475 955.21 475 956.898Z" fill="#9871F5"/>
</g>
</svg>
