<svg width="16" height="20" viewBox="0 0 16 20" fill="none" xmlns="http://www.w3.org/2000/svg">
<path d="M8 0C3.58892 0 0 4.48615 0 10C0 15.5138 3.58892 20 8 20C12.4111 20 16 15.5138 16 10C16 4.48615 12.4111 0 8 0ZM8 1.53846C11.7452 1.53846 14.7692 5.31846 14.7692 10C14.7692 14.6815 11.7452 18.4615 8 18.4615C4.25477 18.4615 1.23077 14.6815 1.23077 10C1.23077 5.31846 4.25477 1.53846 8 1.53846ZM7.94215 5.38462C5.89662 5.38462 4.24985 7.44308 4.24985 10C4.24985 12.5569 5.89662 14.6154 7.94215 14.6154C9.41846 14.6154 10.6806 13.5092 11.2689 11.9469L10.1538 11.2985C9.75692 12.3523 8.928 13.0769 7.94215 13.0769C6.54092 13.0769 5.48062 11.7515 5.48062 10C5.48062 8.24846 6.54092 6.92308 7.94215 6.92308C8.928 6.92308 9.75754 7.64692 10.1538 8.70231L11.2695 8.05308C10.68 6.49077 9.41846 5.38462 7.94154 5.38462H7.94215Z" fill="#4F4F4F"/>
</svg>
