<svg width="393" height="179" viewBox="0 0 393 179" fill="none" xmlns="http://www.w3.org/2000/svg">
<path d="M170.044 105.893H162.371V94.3846L139.355 105.893V94.3846L116.338 105.893V144.254H170.044V105.893Z" fill="#27BBDC"/>
<path d="M185.772 71.3678H171.77L168.125 144.254H189.224L185.772 71.3678Z" fill="#0C9FBF"/>
<path d="M124.01 113.565H131.682V121.238H124.01V113.565Z" fill="#F5F5E0"/>
<path d="M139.355 113.565H147.027V121.238H139.355V113.565Z" fill="#F5F5E0"/>
<path d="M154.699 113.565H162.371V121.238H154.699V113.565Z" fill="#F5F5E0"/>
<path d="M124.01 128.91H131.682V136.582H124.01V128.91Z" fill="#F5F5E0"/>
<path d="M139.355 128.91H147.027V136.582H139.355V128.91Z" fill="#F5F5E0"/>
<path d="M154.699 128.91H162.371V136.582H154.699V128.91Z" fill="#F5F5E0"/>
<path d="M146.473 19.8568L155.818 15.6519L156.752 10.7461L160.023 6.07385L170.068 2.5697L181.281 5.13941L186.187 16.3527H189.925L199.269 20.7913L203.241 30.8365L197.4 39.9473L192.495 47.6564L182.683 49.7589L167.031 47.6564L159.088 41.5826L147.875 39.9473L143.203 31.771L146.473 19.8568Z" fill="#F5F5E0"/>
<path d="M141.1 29.0067C141.1 25.5077 142.203 22.3761 144.407 19.6119C146.611 16.8477 149.405 15.0924 152.787 14.3459C153.744 10.1471 155.895 6.70642 159.243 4.02385C162.59 1.34128 166.422 0 170.737 0C174.936 0 178.691 1.31213 182.004 3.93638C185.316 6.56063 187.462 9.90218 188.442 13.961H189.457C193.656 13.961 197.236 15.4248 200.199 18.3523C203.161 21.2798 204.642 24.8313 204.642 29.0067C204.642 31.2461 204.182 33.363 203.26 35.3574C202.339 37.3519 201.062 39.0606 199.429 40.4835V40.5884C199.429 42.8045 198.735 44.7814 197.347 46.5193C195.959 48.2571 194.215 49.3593 192.116 49.8258C191.579 52.1585 190.448 54.1296 188.722 55.7391C186.996 57.3487 184.966 58.3401 182.634 58.7133C183.707 59.9963 184.243 61.4075 184.243 62.9471C184.243 64.7432 183.608 66.2828 182.336 67.5658C181.065 68.8487 179.531 69.4902 177.735 69.4902C175.939 69.4902 174.405 68.8487 173.134 67.5658C171.863 66.2828 171.227 64.7432 171.227 62.9471C171.227 62.224 171.355 61.5125 171.612 60.8127H171.227C169.058 60.8127 167.191 60.0312 165.628 58.4684C164.066 56.9055 163.284 55.0393 163.284 52.87C163.284 51.377 163.657 50.0474 164.404 48.8811C162.468 47.8081 161.068 46.2568 160.205 44.2274H155.446V44.1924C151.434 43.9358 148.04 42.3496 145.264 39.4338C142.488 36.5179 141.1 33.0423 141.1 29.0067ZM146.314 28.097C146.314 31.0828 147.364 33.6254 149.463 35.7248C151.562 37.8242 154.093 38.8739 157.056 38.8739C158.899 38.8739 160.602 38.4541 162.164 37.6143C162.608 40.3902 163.902 42.6995 166.048 44.5423C168.194 46.3851 170.714 47.3065 173.606 47.3065C176.849 47.3065 179.613 46.1635 181.899 43.8775C183.438 45.6503 185.351 46.5368 187.637 46.5368C189.76 46.5368 191.574 45.7845 193.078 44.2799C194.583 42.7753 195.335 40.9617 195.335 38.8389C196.828 37.8359 198.006 36.5471 198.869 34.9725C199.732 33.398 200.164 31.6893 200.164 29.8465C200.164 26.884 199.102 24.3706 196.98 22.3062C194.857 20.2417 192.303 19.2095 189.317 19.2095C187.241 19.2095 185.34 19.7577 183.613 20.8541C183.823 19.9443 183.928 18.9646 183.928 17.9149C183.928 14.3226 182.645 11.2668 180.079 8.74751C177.513 6.22823 174.411 4.96859 170.772 4.96859C167.273 4.96859 164.252 6.18157 161.71 8.60755C159.167 11.0335 157.837 13.9844 157.721 17.46C157.651 17.46 157.546 17.4542 157.406 17.4425C157.266 17.4309 157.149 17.425 157.056 17.425C154.117 17.425 151.592 18.4689 149.481 20.5567C147.37 22.6444 146.314 25.1578 146.314 28.097Z" fill="#0C9FBF"/>
<path d="M183.196 28.8907H173.883V19.5772C173.883 19.4626 173.789 19.3688 173.674 19.3688H172.997C171.631 19.3675 170.277 19.6359 169.015 20.1588C167.752 20.6817 166.605 21.4488 165.64 22.416C164.689 23.3636 163.932 24.487 163.41 25.7237C162.869 27.0077 162.593 28.3698 162.593 29.7762C162.593 31.1826 162.869 32.5421 163.41 33.8261C163.934 35.0632 164.684 36.1779 165.64 37.1337C166.596 38.0895 167.708 38.8396 168.947 39.3631C170.229 39.9069 171.608 40.1859 173 40.1835C174.366 40.1849 175.72 39.9164 176.982 39.3935C178.245 38.8706 179.392 38.1035 180.357 37.1363C181.313 36.1805 182.063 35.0684 182.587 33.8287C183.131 32.5469 183.41 31.1685 183.407 29.7762V29.099C183.405 28.9844 183.311 28.8907 183.196 28.8907ZM185.486 27.4452L185.418 26.7108C185.196 24.3147 184.134 22.054 182.42 20.3481C180.708 18.6374 178.452 17.5789 176.042 17.3556L175.305 17.2879C175.182 17.2775 175.078 17.3712 175.078 17.4937V27.4869C175.078 27.6015 175.172 27.6952 175.287 27.6952L185.277 27.6692C185.4 27.6666 185.496 27.565 185.486 27.4452Z" fill="#FFC107"/>
<path d="M9.73815 142.231H6.85419C6.25604 142.231 5.95696 141.932 5.95696 141.333V101.919C5.95696 101.321 6.25604 101.022 6.85419 101.022H21.8508C24.7988 101.022 27.106 101.877 28.7723 103.586C30.4386 105.252 31.2717 107.559 31.2717 110.507V117.621C31.2717 120.612 30.4386 122.94 28.7723 124.607C27.106 126.273 24.7988 127.106 21.8508 127.106H11.2763C10.849 127.106 10.6354 127.298 10.6354 127.683V141.333C10.6354 141.932 10.3363 142.231 9.73815 142.231ZM11.2763 122.94H21.2099C24.7988 122.94 26.5933 121.103 26.5933 117.429V110.699C26.5933 106.982 24.7988 105.124 21.2099 105.124H11.2763C10.849 105.124 10.6354 105.316 10.6354 105.701V122.363C10.6354 122.748 10.849 122.94 11.2763 122.94ZM43.1515 142.231H40.2675C39.6694 142.231 39.3703 141.932 39.3703 141.333V98.0741C39.3703 97.476 39.6694 97.1769 40.2675 97.1769H43.1515C43.7497 97.1769 44.0487 97.476 44.0487 98.0741V141.333C44.0487 141.932 43.7497 142.231 43.1515 142.231ZM67.55 142.231H62.0384C59.0904 142.231 56.7618 141.398 55.0528 139.731C53.3865 138.065 52.5534 135.736 52.5534 132.746V119.031C52.5534 116.04 53.3865 113.712 55.0528 112.045C56.7618 110.379 59.0904 109.546 62.0384 109.546H67.55C70.498 109.546 72.8052 110.379 74.4715 112.045C76.1805 113.712 77.035 116.04 77.035 119.031V132.746C77.035 135.736 76.1805 138.065 74.4715 139.731C72.8052 141.398 70.498 142.231 67.55 142.231ZM62.5511 138.129H67.0373C70.6262 138.129 72.4207 136.292 72.4207 132.618V119.159C72.4207 115.485 70.6262 113.647 67.0373 113.647H62.5511C58.9622 113.647 57.1677 115.485 57.1677 119.159V132.618C57.1677 136.292 58.9622 138.129 62.5511 138.129ZM86.4559 113.647H82.9311C82.3329 113.647 82.0339 113.37 82.0339 112.814V110.443C82.0339 109.845 82.3329 109.546 82.9311 109.546H86.4559C86.8832 109.546 87.0968 109.354 87.0968 108.969V103.458C87.0968 102.859 87.3959 102.56 87.994 102.56H90.878C91.4334 102.56 91.7111 102.859 91.7111 103.458V108.969C91.7111 109.354 91.9461 109.546 92.4161 109.546H99.2094C99.8503 109.546 100.171 109.845 100.171 110.443V112.814C100.171 113.37 99.8503 113.647 99.2094 113.647H92.4161C91.9461 113.647 91.7111 113.84 91.7111 114.224V132.682C91.7111 136.313 93.5911 138.129 97.3509 138.129H99.8503C100.491 138.129 100.812 138.428 100.812 139.026V141.398C100.812 141.953 100.491 142.231 99.8503 142.231H96.7741C93.826 142.231 91.4762 141.419 89.7244 139.795C87.9727 138.129 87.0968 135.822 87.0968 132.874V114.224C87.0968 113.84 86.8832 113.647 86.4559 113.647ZM209.637 142.231H206.754C206.155 142.231 205.856 141.932 205.856 141.333V101.919C205.856 101.321 206.155 101.022 206.754 101.022H226.685C227.283 101.022 227.582 101.321 227.582 101.919V104.227C227.582 104.825 227.283 105.124 226.685 105.124H211.176C210.748 105.124 210.535 105.316 210.535 105.701V119.672C210.535 120.056 210.748 120.249 211.176 120.249H224.89C225.489 120.249 225.788 120.548 225.788 121.146V123.453C225.788 124.051 225.489 124.35 224.89 124.35H211.176C210.748 124.35 210.535 124.564 210.535 124.991V141.333C210.535 141.932 210.236 142.231 209.637 142.231ZM246.682 142.231H243.35C240.402 142.231 238.073 141.398 236.364 139.731C234.698 138.065 233.865 135.736 233.865 132.746V119.031C233.865 116.04 234.698 113.712 236.364 112.045C238.073 110.379 240.402 109.546 243.35 109.546H257.257C257.855 109.546 258.154 109.845 258.154 110.443V141.333C258.154 141.932 257.855 142.231 257.257 142.231H254.373C253.775 142.231 253.476 141.932 253.476 141.333V138.834H253.219C252.151 141.098 249.972 142.231 246.682 142.231ZM253.476 132.233V114.224C253.476 113.84 253.262 113.647 252.835 113.647H243.862C240.316 113.647 238.543 115.506 238.543 119.223V132.553C238.543 136.271 240.316 138.129 243.862 138.129H247.515C249.438 138.129 250.912 137.616 251.938 136.591C252.963 135.566 253.476 134.113 253.476 132.233ZM286.022 139.026V141.398C286.022 141.953 285.723 142.231 285.125 142.231H275.832C272.884 142.231 270.555 141.398 268.846 139.731C267.18 138.065 266.347 135.736 266.347 132.746V119.031C266.347 116.04 267.18 113.712 268.846 112.045C270.555 110.379 272.884 109.546 275.832 109.546H285.125C285.723 109.546 286.022 109.845 286.022 110.443V112.814C286.022 113.37 285.723 113.647 285.125 113.647H276.345C272.798 113.647 271.025 115.506 271.025 119.223V132.553C271.025 136.271 272.798 138.129 276.345 138.129H285.125C285.723 138.129 286.022 138.428 286.022 139.026ZM293.803 113.647H290.278C289.68 113.647 289.381 113.37 289.381 112.814V110.443C289.381 109.845 289.68 109.546 290.278 109.546H293.803C294.23 109.546 294.444 109.354 294.444 108.969V103.458C294.444 102.859 294.743 102.56 295.341 102.56H298.225C298.78 102.56 299.058 102.859 299.058 103.458V108.969C299.058 109.354 299.293 109.546 299.763 109.546H306.556C307.197 109.546 307.518 109.845 307.518 110.443V112.814C307.518 113.37 307.197 113.647 306.556 113.647H299.763C299.293 113.647 299.058 113.84 299.058 114.224V132.682C299.058 136.313 300.938 138.129 304.698 138.129H307.197C307.838 138.129 308.159 138.428 308.159 139.026V141.398C308.159 141.953 307.838 142.231 307.197 142.231H304.121C301.173 142.231 298.823 141.419 297.071 139.795C295.32 138.129 294.444 135.822 294.444 132.874V114.224C294.444 113.84 294.23 113.647 293.803 113.647ZM329.284 142.231H323.773C320.825 142.231 318.496 141.398 316.787 139.731C315.121 138.065 314.288 135.736 314.288 132.746V119.031C314.288 116.04 315.121 113.712 316.787 112.045C318.496 110.379 320.825 109.546 323.773 109.546H329.284C332.232 109.546 334.539 110.379 336.206 112.045C337.915 113.712 338.769 116.04 338.769 119.031V132.746C338.769 135.736 337.915 138.065 336.206 139.731C334.539 141.398 332.232 142.231 329.284 142.231ZM324.285 138.129H328.771C332.36 138.129 334.155 136.292 334.155 132.618V119.159C334.155 115.485 332.36 113.647 328.771 113.647H324.285C320.696 113.647 318.902 115.485 318.902 119.159V132.618C318.902 136.292 320.696 138.129 324.285 138.129ZM350.754 142.231H347.87C347.272 142.231 346.972 141.932 346.972 141.333V110.443C346.972 109.845 347.272 109.546 347.87 109.546H350.754C351.352 109.546 351.651 109.845 351.651 110.443V113.007H351.907C352.334 112.067 353.146 111.255 354.343 110.571C355.539 109.888 356.949 109.546 358.572 109.546H361.072C361.627 109.546 361.905 109.845 361.905 110.443V112.814C361.905 113.113 361.841 113.348 361.713 113.519C361.585 113.647 361.371 113.69 361.072 113.647H357.611C355.688 113.647 354.214 114.224 353.189 115.378C352.164 116.531 351.651 118.112 351.651 120.12V141.333C351.651 141.932 351.352 142.231 350.754 142.231ZM370.316 152.293H367.496C366.898 152.293 366.599 151.993 366.599 151.395V149.024C366.599 148.426 366.898 148.127 367.496 148.127H369.098C371.833 148.127 373.755 147.358 374.866 145.82C375.763 144.581 376.575 142.808 377.302 140.5H375.443C374.93 140.5 374.567 140.201 374.354 139.603L364.933 110.443C364.762 109.845 364.975 109.546 365.573 109.546H368.65C369.205 109.546 369.568 109.845 369.739 110.443L378.007 136.847H378.263L386.53 110.443C386.658 109.845 387 109.546 387.556 109.546H390.504C391.23 109.546 391.486 109.866 391.273 110.507L381.724 140.949C380.656 144.581 379.288 147.379 377.622 149.344C375.998 151.31 373.563 152.293 370.316 152.293Z" fill="#0C9FBF"/>
<path d="M0.32 164H1.54V163.44C1.54 162.187 1.72 161.28 2.08 160.72C2.44 160.16 3.05333 159.88 3.92 159.88C4.26667 159.88 4.58 159.9 4.86 159.94C5.14 159.98 5.42667 160.067 5.72 160.2L5.36 161.44C5.12 161.333 4.89333 161.267 4.68 161.24C4.48 161.2 4.28667 161.18 4.1 161.18C3.83333 161.18 3.62667 161.233 3.48 161.34C3.33333 161.447 3.22 161.613 3.14 161.84C3.07333 162.067 3.02667 162.36 3 162.72C2.98667 163.067 2.98 163.493 2.98 164H5.06V165.3H2.98V174H1.54V165.3H0.32V164ZM6.21672 164.6C6.60339 164.36 7.07005 164.173 7.61672 164.04C8.17672 163.907 8.76339 163.84 9.37672 163.84C9.93672 163.84 10.3834 163.927 10.7167 164.1C11.0634 164.26 11.3301 164.487 11.5167 164.78C11.7167 165.06 11.8434 165.387 11.8967 165.76C11.9634 166.12 11.9967 166.5 11.9967 166.9C11.9967 167.7 11.9767 168.48 11.9367 169.24C11.9101 170 11.8967 170.72 11.8967 171.4C11.8967 171.907 11.9101 172.38 11.9367 172.82C11.9767 173.247 12.0434 173.653 12.1367 174.04H11.0367L10.6967 172.86H10.6167C10.4167 173.207 10.1234 173.507 9.73672 173.76C9.35005 174.013 8.83005 174.14 8.17672 174.14C7.45672 174.14 6.86339 173.893 6.39672 173.4C5.94339 172.893 5.71672 172.2 5.71672 171.32C5.71672 170.747 5.81005 170.267 5.99672 169.88C6.19672 169.493 6.47005 169.18 6.81672 168.94C7.17672 168.7 7.59672 168.533 8.07672 168.44C8.57005 168.333 9.11672 168.28 9.71672 168.28C9.85005 168.28 9.98339 168.28 10.1167 168.28C10.2501 168.28 10.3901 168.287 10.5367 168.3C10.5767 167.887 10.5967 167.52 10.5967 167.2C10.5967 166.44 10.4834 165.907 10.2567 165.6C10.0301 165.293 9.61672 165.14 9.01672 165.14C8.64339 165.14 8.23672 165.2 7.79672 165.32C7.35672 165.427 6.99005 165.567 6.69672 165.74L6.21672 164.6ZM10.5567 169.44C10.4234 169.427 10.2901 169.42 10.1567 169.42C10.0234 169.407 9.89005 169.4 9.75672 169.4C9.43672 169.4 9.12339 169.427 8.81672 169.48C8.51005 169.533 8.23672 169.627 7.99672 169.76C7.75672 169.893 7.56339 170.073 7.41672 170.3C7.28339 170.527 7.21672 170.813 7.21672 171.16C7.21672 171.693 7.34339 172.107 7.59672 172.4C7.86339 172.693 8.20339 172.84 8.61672 172.84C9.17672 172.84 9.61005 172.707 9.91672 172.44C10.2234 172.173 10.4367 171.88 10.5567 171.56V169.44ZM14.3245 160H15.7645V164.76H15.8245C16.3712 164.093 17.0979 163.76 18.0045 163.76C19.0312 163.76 19.7979 164.167 20.3045 164.98C20.8245 165.793 21.0845 167.08 21.0845 168.84C21.0845 170.64 20.7379 171.98 20.0445 172.86C19.3645 173.74 18.3979 174.18 17.1445 174.18C16.5312 174.18 15.9712 174.113 15.4645 173.98C14.9579 173.833 14.5779 173.667 14.3245 173.48V160ZM15.7645 172.54C15.9512 172.647 16.1779 172.733 16.4445 172.8C16.7245 172.853 17.0179 172.88 17.3245 172.88C18.0179 172.88 18.5645 172.553 18.9645 171.9C19.3779 171.233 19.5845 170.213 19.5845 168.84C19.5845 168.267 19.5445 167.753 19.4645 167.3C19.3979 166.833 19.2845 166.433 19.1245 166.1C18.9779 165.767 18.7779 165.513 18.5245 165.34C18.2845 165.153 17.9912 165.06 17.6445 165.06C17.1645 165.06 16.7645 165.207 16.4445 165.5C16.1379 165.78 15.9112 166.167 15.7645 166.66V172.54ZM22.9964 164H24.0164L24.2764 165.06H24.3364C24.5231 164.673 24.7631 164.373 25.0564 164.16C25.3631 163.933 25.7297 163.82 26.1564 163.82C26.4631 163.82 26.8097 163.88 27.1964 164L26.9164 165.46C26.5697 165.34 26.2631 165.28 25.9964 165.28C25.5697 165.28 25.2231 165.407 24.9564 165.66C24.6897 165.9 24.5164 166.227 24.4364 166.64V174H22.9964V164ZM28.7247 164H30.1647V174H28.7247V164ZM28.4647 160.96C28.4647 160.64 28.5514 160.38 28.7247 160.18C28.9114 159.98 29.1514 159.88 29.4447 159.88C29.738 159.88 29.978 159.98 30.1647 160.18C30.3647 160.367 30.4647 160.627 30.4647 160.96C30.4647 161.28 30.3647 161.533 30.1647 161.72C29.978 161.893 29.738 161.98 29.4447 161.98C29.1514 161.98 28.9114 161.887 28.7247 161.7C28.5514 161.513 28.4647 161.267 28.4647 160.96ZM38.3406 173.5C38.0073 173.753 37.6273 173.94 37.2006 174.06C36.774 174.18 36.3273 174.24 35.8606 174.24C35.2206 174.24 34.6806 174.12 34.2406 173.88C33.8006 173.627 33.4406 173.273 33.1606 172.82C32.894 172.353 32.694 171.8 32.5606 171.16C32.4406 170.507 32.3806 169.787 32.3806 169C32.3806 167.293 32.6806 165.993 33.2806 165.1C33.894 164.207 34.7673 163.76 35.9006 163.76C36.4206 163.76 36.8673 163.807 37.2406 163.9C37.614 163.993 37.934 164.113 38.2006 164.26L37.8006 165.52C37.2673 165.213 36.6873 165.06 36.0606 165.06C35.3406 165.06 34.794 165.38 34.4206 166.02C34.0606 166.647 33.8806 167.64 33.8806 169C33.8806 169.547 33.9206 170.06 34.0006 170.54C34.0806 171.02 34.214 171.44 34.4006 171.8C34.5873 172.147 34.8273 172.427 35.1206 172.64C35.414 172.84 35.7806 172.94 36.2206 172.94C36.5673 172.94 36.8873 172.88 37.1806 172.76C37.4873 172.64 37.734 172.5 37.9206 172.34L38.3406 173.5ZM39.8495 164.6C40.2362 164.36 40.7029 164.173 41.2495 164.04C41.8095 163.907 42.3962 163.84 43.0095 163.84C43.5695 163.84 44.0162 163.927 44.3495 164.1C44.6962 164.26 44.9629 164.487 45.1495 164.78C45.3495 165.06 45.4762 165.387 45.5295 165.76C45.5962 166.12 45.6295 166.5 45.6295 166.9C45.6295 167.7 45.6095 168.48 45.5695 169.24C45.5429 170 45.5295 170.72 45.5295 171.4C45.5295 171.907 45.5429 172.38 45.5695 172.82C45.6095 173.247 45.6762 173.653 45.7695 174.04H44.6695L44.3295 172.86H44.2495C44.0495 173.207 43.7562 173.507 43.3695 173.76C42.9829 174.013 42.4629 174.14 41.8095 174.14C41.0895 174.14 40.4962 173.893 40.0295 173.4C39.5762 172.893 39.3495 172.2 39.3495 171.32C39.3495 170.747 39.4429 170.267 39.6295 169.88C39.8295 169.493 40.1029 169.18 40.4495 168.94C40.8095 168.7 41.2295 168.533 41.7095 168.44C42.2029 168.333 42.7495 168.28 43.3495 168.28C43.4829 168.28 43.6162 168.28 43.7495 168.28C43.8829 168.28 44.0229 168.287 44.1695 168.3C44.2095 167.887 44.2295 167.52 44.2295 167.2C44.2295 166.44 44.1162 165.907 43.8895 165.6C43.6629 165.293 43.2495 165.14 42.6495 165.14C42.2762 165.14 41.8695 165.2 41.4295 165.32C40.9895 165.427 40.6229 165.567 40.3295 165.74L39.8495 164.6ZM44.1895 169.44C44.0562 169.427 43.9229 169.42 43.7895 169.42C43.6562 169.407 43.5229 169.4 43.3895 169.4C43.0695 169.4 42.7562 169.427 42.4495 169.48C42.1429 169.533 41.8695 169.627 41.6295 169.76C41.3895 169.893 41.1962 170.073 41.0495 170.3C40.9162 170.527 40.8495 170.813 40.8495 171.16C40.8495 171.693 40.9762 172.107 41.2295 172.4C41.4962 172.693 41.8362 172.84 42.2495 172.84C42.8095 172.84 43.2429 172.707 43.5495 172.44C43.8562 172.173 44.0695 171.88 44.1895 171.56V169.44ZM53.0773 174V167.9C53.0773 166.9 52.9573 166.18 52.7173 165.74C52.4907 165.287 52.0773 165.06 51.4773 165.06C50.944 165.06 50.504 165.22 50.1573 165.54C49.8107 165.86 49.5573 166.253 49.3973 166.72V174H47.9573V164H48.9973L49.2573 165.06H49.3173C49.5707 164.7 49.9107 164.393 50.3373 164.14C50.7773 163.887 51.2973 163.76 51.8973 163.76C52.324 163.76 52.6973 163.82 53.0173 163.94C53.3507 164.06 53.624 164.267 53.8373 164.56C54.064 164.84 54.2307 165.22 54.3373 165.7C54.4573 166.18 54.5173 166.787 54.5173 167.52V174H53.0773ZM63.0464 170.56C63.0464 171.24 63.0531 171.86 63.0664 172.42C63.0797 172.967 63.1264 173.507 63.2064 174.04H62.2264L61.9064 172.84H61.8264C61.6397 173.24 61.3464 173.573 60.9464 173.84C60.5464 174.107 60.0664 174.24 59.5064 174.24C58.4264 174.24 57.6197 173.82 57.0864 172.98C56.5664 172.14 56.3064 170.82 56.3064 169.02C56.3064 167.313 56.6264 166.02 57.2664 165.14C57.9197 164.26 58.8131 163.82 59.9464 163.82C60.3331 163.82 60.6397 163.847 60.8664 163.9C61.0931 163.94 61.3397 164.013 61.6064 164.12V160H63.0464V170.56ZM61.6064 165.58C61.4197 165.42 61.2064 165.307 60.9664 165.24C60.7397 165.16 60.4331 165.12 60.0464 165.12C59.3397 165.12 58.7864 165.44 58.3864 166.08C57.9997 166.72 57.8064 167.707 57.8064 169.04C57.8064 169.627 57.8397 170.16 57.9064 170.64C57.9864 171.107 58.0997 171.513 58.2464 171.86C58.4064 172.207 58.6064 172.473 58.8464 172.66C59.0997 172.847 59.4064 172.94 59.7664 172.94C60.7264 172.94 61.3397 172.373 61.6064 171.24V165.58ZM64.9588 169C64.9588 167.2 65.2654 165.88 65.8788 165.04C66.5054 164.187 67.3921 163.76 68.5388 163.76C69.7654 163.76 70.6654 164.193 71.2388 165.06C71.8254 165.927 72.1188 167.24 72.1188 169C72.1188 170.813 71.8054 172.14 71.1788 172.98C70.5521 173.82 69.6721 174.24 68.5388 174.24C67.3121 174.24 66.4054 173.807 65.8188 172.94C65.2454 172.073 64.9588 170.76 64.9588 169ZM66.4588 169C66.4588 169.587 66.4921 170.12 66.5588 170.6C66.6388 171.08 66.7588 171.493 66.9188 171.84C67.0921 172.187 67.3121 172.46 67.5788 172.66C67.8454 172.847 68.1654 172.94 68.5388 172.94C69.2321 172.94 69.7521 172.633 70.0987 172.02C70.4454 171.393 70.6188 170.387 70.6188 169C70.6188 168.427 70.5788 167.9 70.4988 167.42C70.4321 166.927 70.3121 166.507 70.1388 166.16C69.9788 165.813 69.7654 165.547 69.4987 165.36C69.2321 165.16 68.9121 165.06 68.5388 165.06C67.8588 165.06 67.3388 165.373 66.9788 166C66.6321 166.627 66.4588 167.627 66.4588 169ZM78.5098 164H79.9498V174H78.5098V164ZM78.2498 160.96C78.2498 160.64 78.3365 160.38 78.5098 160.18C78.6965 159.98 78.9365 159.88 79.2298 159.88C79.5232 159.88 79.7632 159.98 79.9498 160.18C80.1498 160.367 80.2498 160.627 80.2498 160.96C80.2498 161.28 80.1498 161.533 79.9498 161.72C79.7632 161.893 79.5232 161.98 79.2298 161.98C78.9365 161.98 78.6965 161.887 78.5098 161.7C78.3365 161.513 78.2498 161.267 78.2498 160.96ZM88.9058 170.56C88.9058 171.24 88.9124 171.86 88.9258 172.42C88.9391 172.967 88.9858 173.507 89.0658 174.04H88.0858L87.7658 172.84H87.6858C87.4991 173.24 87.2058 173.573 86.8058 173.84C86.4058 174.107 85.9258 174.24 85.3658 174.24C84.2858 174.24 83.4791 173.82 82.9458 172.98C82.4258 172.14 82.1658 170.82 82.1658 169.02C82.1658 167.313 82.4858 166.02 83.1258 165.14C83.7791 164.26 84.6724 163.82 85.8058 163.82C86.1924 163.82 86.4991 163.847 86.7258 163.9C86.9524 163.94 87.1991 164.013 87.4658 164.12V160H88.9058V170.56ZM87.4658 165.58C87.2791 165.42 87.0658 165.307 86.8258 165.24C86.5991 165.16 86.2924 165.12 85.9058 165.12C85.1991 165.12 84.6458 165.44 84.2458 166.08C83.8591 166.72 83.6658 167.707 83.6658 169.04C83.6658 169.627 83.6991 170.16 83.7658 170.64C83.8458 171.107 83.9591 171.513 84.1058 171.86C84.2658 172.207 84.4658 172.473 84.7058 172.66C84.9591 172.847 85.2658 172.94 85.6258 172.94C86.5858 172.94 87.1991 172.373 87.4658 171.24V165.58ZM97.2381 173.32C96.9181 173.613 96.5115 173.84 96.0181 174C95.5248 174.16 95.0048 174.24 94.4581 174.24C93.8315 174.24 93.2848 174.12 92.8181 173.88C92.3648 173.627 91.9848 173.273 91.6781 172.82C91.3848 172.353 91.1648 171.8 91.0181 171.16C90.8848 170.52 90.8181 169.8 90.8181 169C90.8181 167.293 91.1315 165.993 91.7581 165.1C92.3848 164.207 93.2715 163.76 94.4181 163.76C94.7915 163.76 95.1581 163.807 95.5181 163.9C95.8915 163.993 96.2248 164.18 96.5181 164.46C96.8115 164.74 97.0448 165.133 97.2181 165.64C97.4048 166.147 97.4981 166.807 97.4981 167.62C97.4981 167.847 97.4848 168.093 97.4581 168.36C97.4448 168.613 97.4248 168.88 97.3981 169.16H92.3181C92.3181 169.733 92.3648 170.253 92.4581 170.72C92.5515 171.187 92.6981 171.587 92.8981 171.92C93.0981 172.24 93.3515 172.493 93.6581 172.68C93.9781 172.853 94.3715 172.94 94.8381 172.94C95.1981 172.94 95.5515 172.873 95.8981 172.74C96.2581 172.607 96.5315 172.447 96.7181 172.26L97.2381 173.32ZM96.1181 167.96C96.1448 166.96 96.0048 166.227 95.6981 165.76C95.3915 165.293 94.9715 165.06 94.4381 165.06C93.8248 165.06 93.3381 165.293 92.9781 165.76C92.6181 166.227 92.4048 166.96 92.3381 167.96H96.1181ZM99.7598 164H101.2V174H99.7598V164ZM99.4998 160.96C99.4998 160.64 99.5865 160.38 99.7598 160.18C99.9465 159.98 100.187 159.88 100.48 159.88C100.773 159.88 101.013 159.98 101.2 160.18C101.4 160.367 101.5 160.627 101.5 160.96C101.5 161.28 101.4 161.533 101.2 161.72C101.013 161.893 100.773 161.98 100.48 161.98C100.187 161.98 99.9465 161.887 99.7598 161.7C99.5865 161.513 99.4998 161.267 99.4998 160.96ZM103.756 164.6C104.142 164.36 104.609 164.173 105.156 164.04C105.716 163.907 106.302 163.84 106.916 163.84C107.476 163.84 107.922 163.927 108.256 164.1C108.602 164.26 108.869 164.487 109.056 164.78C109.256 165.06 109.382 165.387 109.436 165.76C109.502 166.12 109.536 166.5 109.536 166.9C109.536 167.7 109.516 168.48 109.476 169.24C109.449 170 109.436 170.72 109.436 171.4C109.436 171.907 109.449 172.38 109.476 172.82C109.516 173.247 109.582 173.653 109.676 174.04H108.576L108.236 172.86H108.156C107.956 173.207 107.662 173.507 107.276 173.76C106.889 174.013 106.369 174.14 105.716 174.14C104.996 174.14 104.402 173.893 103.936 173.4C103.482 172.893 103.256 172.2 103.256 171.32C103.256 170.747 103.349 170.267 103.536 169.88C103.736 169.493 104.009 169.18 104.356 168.94C104.716 168.7 105.136 168.533 105.616 168.44C106.109 168.333 106.656 168.28 107.256 168.28C107.389 168.28 107.522 168.28 107.656 168.28C107.789 168.28 107.929 168.287 108.076 168.3C108.116 167.887 108.136 167.52 108.136 167.2C108.136 166.44 108.022 165.907 107.796 165.6C107.569 165.293 107.156 165.14 106.556 165.14C106.182 165.14 105.776 165.2 105.336 165.32C104.896 165.427 104.529 165.567 104.236 165.74L103.756 164.6ZM108.096 169.44C107.962 169.427 107.829 169.42 107.696 169.42C107.562 169.407 107.429 169.4 107.296 169.4C106.976 169.4 106.662 169.427 106.356 169.48C106.049 169.533 105.776 169.627 105.536 169.76C105.296 169.893 105.102 170.073 104.956 170.3C104.822 170.527 104.756 170.813 104.756 171.16C104.756 171.693 104.882 172.107 105.136 172.4C105.402 172.693 105.742 172.84 106.156 172.84C106.716 172.84 107.149 172.707 107.456 172.44C107.762 172.173 107.976 171.88 108.096 171.56V169.44ZM111.704 172.36C111.97 172.52 112.284 172.66 112.644 172.78C113.017 172.887 113.397 172.94 113.784 172.94C114.224 172.94 114.597 172.833 114.904 172.62C115.21 172.393 115.364 172.033 115.364 171.54C115.364 171.127 115.27 170.787 115.084 170.52C114.897 170.253 114.657 170.013 114.364 169.8C114.084 169.587 113.777 169.393 113.444 169.22C113.11 169.033 112.797 168.813 112.504 168.56C112.224 168.307 111.99 168.007 111.804 167.66C111.617 167.313 111.524 166.873 111.524 166.34C111.524 165.487 111.75 164.847 112.204 164.42C112.67 163.98 113.324 163.76 114.164 163.76C114.71 163.76 115.184 163.813 115.584 163.92C115.984 164.013 116.33 164.147 116.624 164.32L116.244 165.52C115.99 165.387 115.697 165.28 115.364 165.2C115.03 165.107 114.69 165.06 114.344 165.06C113.864 165.06 113.51 165.16 113.284 165.36C113.07 165.56 112.964 165.873 112.964 166.3C112.964 166.633 113.057 166.92 113.244 167.16C113.43 167.387 113.664 167.6 113.944 167.8C114.237 167.987 114.55 168.18 114.884 168.38C115.217 168.58 115.524 168.82 115.804 169.1C116.097 169.367 116.337 169.693 116.524 170.08C116.71 170.453 116.804 170.927 116.804 171.5C116.804 171.873 116.744 172.227 116.624 172.56C116.504 172.893 116.317 173.187 116.064 173.44C115.824 173.68 115.517 173.873 115.144 174.02C114.784 174.167 114.357 174.24 113.864 174.24C113.277 174.24 112.77 174.18 112.344 174.06C111.917 173.953 111.557 173.807 111.264 173.62L111.704 172.36ZM128.84 173.32C128.52 173.613 128.113 173.84 127.62 174C127.126 174.16 126.606 174.24 126.06 174.24C125.433 174.24 124.886 174.12 124.42 173.88C123.966 173.627 123.586 173.273 123.28 172.82C122.986 172.353 122.766 171.8 122.62 171.16C122.486 170.52 122.42 169.8 122.42 169C122.42 167.293 122.733 165.993 123.36 165.1C123.986 164.207 124.873 163.76 126.02 163.76C126.393 163.76 126.76 163.807 127.12 163.9C127.493 163.993 127.826 164.18 128.12 164.46C128.413 164.74 128.646 165.133 128.82 165.64C129.006 166.147 129.1 166.807 129.1 167.62C129.1 167.847 129.086 168.093 129.06 168.36C129.046 168.613 129.026 168.88 129 169.16H123.92C123.92 169.733 123.966 170.253 124.06 170.72C124.153 171.187 124.3 171.587 124.5 171.92C124.7 172.24 124.953 172.493 125.26 172.68C125.58 172.853 125.973 172.94 126.44 172.94C126.8 172.94 127.153 172.873 127.5 172.74C127.86 172.607 128.133 172.447 128.32 172.26L128.84 173.32ZM127.72 167.96C127.746 166.96 127.606 166.227 127.3 165.76C126.993 165.293 126.573 165.06 126.04 165.06C125.426 165.06 124.94 165.293 124.58 165.76C124.22 166.227 124.006 166.96 123.94 167.96H127.72ZM135.801 174V168.06C135.801 167.527 135.781 167.073 135.741 166.7C135.715 166.313 135.648 166 135.541 165.76C135.435 165.52 135.288 165.347 135.101 165.24C134.915 165.12 134.668 165.06 134.361 165.06C133.908 165.06 133.521 165.24 133.201 165.6C132.895 165.947 132.681 166.347 132.561 166.8V174H131.121V164H132.141L132.401 165.06H132.461C132.741 164.673 133.075 164.36 133.461 164.12C133.848 163.88 134.341 163.76 134.941 163.76C135.448 163.76 135.861 163.873 136.181 164.1C136.515 164.313 136.775 164.7 136.961 165.26C137.201 164.793 137.541 164.427 137.981 164.16C138.435 163.893 138.928 163.76 139.461 163.76C139.901 163.76 140.275 163.82 140.581 163.94C140.901 164.047 141.155 164.247 141.341 164.54C141.541 164.82 141.688 165.2 141.781 165.68C141.875 166.147 141.921 166.74 141.921 167.46V174H140.481V167.64C140.481 166.773 140.395 166.127 140.221 165.7C140.061 165.273 139.681 165.06 139.081 165.06C138.575 165.06 138.168 165.22 137.861 165.54C137.568 165.847 137.361 166.267 137.241 166.8V174H135.801ZM154.687 174.46C154.687 175.753 154.4 176.707 153.827 177.32C153.254 177.933 152.42 178.24 151.327 178.24C150.66 178.24 150.114 178.18 149.687 178.06C149.26 177.953 148.914 177.827 148.647 177.68L149.067 176.44C149.334 176.56 149.627 176.673 149.947 176.78C150.267 176.887 150.66 176.94 151.127 176.94C151.94 176.94 152.494 176.713 152.787 176.26C153.094 175.807 153.247 175.047 153.247 173.98V173.24H153.187C152.974 173.547 152.7 173.787 152.367 173.96C152.034 174.133 151.607 174.22 151.087 174.22C150.007 174.22 149.214 173.807 148.707 172.98C148.2 172.14 147.947 170.827 147.947 169.04C147.947 167.32 148.274 166.02 148.927 165.14C149.594 164.26 150.574 163.82 151.867 163.82C152.494 163.82 153.034 163.88 153.487 164C153.94 164.12 154.34 164.26 154.687 164.42V174.46ZM153.247 165.44C152.847 165.227 152.334 165.12 151.707 165.12C151.027 165.12 150.48 165.433 150.067 166.06C149.654 166.673 149.447 167.66 149.447 169.02C149.447 169.58 149.48 170.1 149.547 170.58C149.614 171.047 149.727 171.46 149.887 171.82C150.047 172.167 150.247 172.44 150.487 172.64C150.74 172.827 151.047 172.92 151.407 172.92C151.914 172.92 152.314 172.787 152.607 172.52C152.9 172.253 153.114 171.853 153.247 171.32V165.44ZM157.02 164H158.04L158.3 165.06H158.36C158.547 164.673 158.787 164.373 159.08 164.16C159.387 163.933 159.753 163.82 160.18 163.82C160.487 163.82 160.833 163.88 161.22 164L160.94 165.46C160.593 165.34 160.287 165.28 160.02 165.28C159.593 165.28 159.247 165.407 158.98 165.66C158.713 165.9 158.54 166.227 158.46 166.64V174H157.02V164ZM162.408 164.6C162.795 164.36 163.261 164.173 163.808 164.04C164.368 163.907 164.955 163.84 165.568 163.84C166.128 163.84 166.575 163.927 166.908 164.1C167.255 164.26 167.521 164.487 167.708 164.78C167.908 165.06 168.035 165.387 168.088 165.76C168.155 166.12 168.188 166.5 168.188 166.9C168.188 167.7 168.168 168.48 168.128 169.24C168.101 170 168.088 170.72 168.088 171.4C168.088 171.907 168.101 172.38 168.128 172.82C168.168 173.247 168.235 173.653 168.328 174.04H167.228L166.888 172.86H166.808C166.608 173.207 166.315 173.507 165.928 173.76C165.541 174.013 165.021 174.14 164.368 174.14C163.648 174.14 163.055 173.893 162.588 173.4C162.135 172.893 161.908 172.2 161.908 171.32C161.908 170.747 162.001 170.267 162.188 169.88C162.388 169.493 162.661 169.18 163.008 168.94C163.368 168.7 163.788 168.533 164.268 168.44C164.761 168.333 165.308 168.28 165.908 168.28C166.041 168.28 166.175 168.28 166.308 168.28C166.441 168.28 166.581 168.287 166.728 168.3C166.768 167.887 166.788 167.52 166.788 167.2C166.788 166.44 166.675 165.907 166.448 165.6C166.221 165.293 165.808 165.14 165.208 165.14C164.835 165.14 164.428 165.2 163.988 165.32C163.548 165.427 163.181 165.567 162.888 165.74L162.408 164.6ZM166.748 169.44C166.615 169.427 166.481 169.42 166.348 169.42C166.215 169.407 166.081 169.4 165.948 169.4C165.628 169.4 165.315 169.427 165.008 169.48C164.701 169.533 164.428 169.627 164.188 169.76C163.948 169.893 163.755 170.073 163.608 170.3C163.475 170.527 163.408 170.813 163.408 171.16C163.408 171.693 163.535 172.107 163.788 172.4C164.055 172.693 164.395 172.84 164.808 172.84C165.368 172.84 165.801 172.707 166.108 172.44C166.415 172.173 166.628 171.88 166.748 171.56V169.44ZM165.208 159.6H166.768V160.02L165.128 162.58H164.268L165.208 159.6ZM176.856 164V174H175.416V165.3H172.316V174H170.876V165.3H169.656V164H170.876V163.44C170.876 162.187 171.129 161.28 171.636 160.72C172.143 160.147 172.883 159.86 173.856 159.86C174.509 159.86 175.076 159.927 175.556 160.06C176.049 160.18 176.449 160.32 176.756 160.48L176.296 161.68C175.976 161.493 175.616 161.36 175.216 161.28C174.829 161.2 174.423 161.16 173.996 161.16C173.623 161.16 173.323 161.227 173.096 161.36C172.883 161.48 172.716 161.667 172.596 161.92C172.476 162.16 172.396 162.46 172.356 162.82C172.329 163.167 172.316 163.56 172.316 164H176.856ZM184.766 173.5C184.433 173.753 184.053 173.94 183.626 174.06C183.2 174.18 182.753 174.24 182.286 174.24C181.646 174.24 181.106 174.12 180.666 173.88C180.226 173.627 179.866 173.273 179.586 172.82C179.32 172.353 179.12 171.8 178.986 171.16C178.866 170.507 178.806 169.787 178.806 169C178.806 167.293 179.106 165.993 179.706 165.1C180.32 164.207 181.193 163.76 182.326 163.76C182.846 163.76 183.293 163.807 183.666 163.9C184.04 163.993 184.36 164.113 184.626 164.26L184.226 165.52C183.693 165.213 183.113 165.06 182.486 165.06C181.766 165.06 181.22 165.38 180.846 166.02C180.486 166.647 180.306 167.64 180.306 169C180.306 169.547 180.346 170.06 180.426 170.54C180.506 171.02 180.64 171.44 180.826 171.8C181.013 172.147 181.253 172.427 181.546 172.64C181.84 172.84 182.206 172.94 182.646 172.94C182.993 172.94 183.313 172.88 183.606 172.76C183.913 172.64 184.16 172.5 184.346 172.34L184.766 173.5ZM185.603 169C185.603 167.2 185.91 165.88 186.523 165.04C187.15 164.187 188.037 163.76 189.183 163.76C190.41 163.76 191.31 164.193 191.883 165.06C192.47 165.927 192.763 167.24 192.763 169C192.763 170.813 192.45 172.14 191.823 172.98C191.197 173.82 190.317 174.24 189.183 174.24C187.957 174.24 187.05 173.807 186.463 172.94C185.89 172.073 185.603 170.76 185.603 169ZM187.103 169C187.103 169.587 187.137 170.12 187.203 170.6C187.283 171.08 187.403 171.493 187.563 171.84C187.737 172.187 187.957 172.46 188.223 172.66C188.49 172.847 188.81 172.94 189.183 172.94C189.877 172.94 190.397 172.633 190.743 172.02C191.09 171.393 191.263 170.387 191.263 169C191.263 168.427 191.223 167.9 191.143 167.42C191.077 166.927 190.957 166.507 190.783 166.16C190.623 165.813 190.41 165.547 190.143 165.36C189.877 165.16 189.557 165.06 189.183 165.06C188.503 165.06 187.983 165.373 187.623 166C187.277 166.627 187.103 167.627 187.103 169ZM194.516 172.36C194.783 172.52 195.096 172.66 195.456 172.78C195.829 172.887 196.209 172.94 196.596 172.94C197.036 172.94 197.409 172.833 197.716 172.62C198.023 172.393 198.176 172.033 198.176 171.54C198.176 171.127 198.083 170.787 197.896 170.52C197.709 170.253 197.469 170.013 197.176 169.8C196.896 169.587 196.589 169.393 196.256 169.22C195.923 169.033 195.609 168.813 195.316 168.56C195.036 168.307 194.803 168.007 194.616 167.66C194.429 167.313 194.336 166.873 194.336 166.34C194.336 165.487 194.563 164.847 195.016 164.42C195.483 163.98 196.136 163.76 196.976 163.76C197.523 163.76 197.996 163.813 198.396 163.92C198.796 164.013 199.143 164.147 199.436 164.32L199.056 165.52C198.803 165.387 198.509 165.28 198.176 165.2C197.843 165.107 197.503 165.06 197.156 165.06C196.676 165.06 196.323 165.16 196.096 165.36C195.883 165.56 195.776 165.873 195.776 166.3C195.776 166.633 195.869 166.92 196.056 167.16C196.243 167.387 196.476 167.6 196.756 167.8C197.049 167.987 197.363 168.18 197.696 168.38C198.029 168.58 198.336 168.82 198.616 169.1C198.909 169.367 199.149 169.693 199.336 170.08C199.523 170.453 199.616 170.927 199.616 171.5C199.616 171.873 199.556 172.227 199.436 172.56C199.316 172.893 199.129 173.187 198.876 173.44C198.636 173.68 198.329 173.873 197.956 174.02C197.596 174.167 197.169 174.24 196.676 174.24C196.089 174.24 195.583 174.18 195.156 174.06C194.729 173.953 194.369 173.807 194.076 173.62L194.516 172.36ZM201.034 173.1C201.034 172.727 201.121 172.447 201.294 172.26C201.481 172.073 201.727 171.98 202.034 171.98C202.341 171.98 202.581 172.073 202.754 172.26C202.941 172.447 203.034 172.727 203.034 173.1C203.034 173.487 202.941 173.773 202.754 173.96C202.581 174.147 202.341 174.24 202.034 174.24C201.727 174.24 201.481 174.147 201.294 173.96C201.121 173.773 201.034 173.487 201.034 173.1Z" fill="#333333"/>
</svg>
