<svg width="393" height="153" viewBox="0 0 393 153" fill="none" xmlns="http://www.w3.org/2000/svg">
<path d="M170.044 105.893H162.371V94.3846L139.355 105.893V94.3846L116.338 105.893V144.254H170.044V105.893Z" fill="#27BBDC"/>
<path d="M185.772 71.3678H171.77L168.125 144.254H189.224L185.772 71.3678Z" fill="#0C9FBF"/>
<path d="M124.01 113.565H131.682V121.238H124.01V113.565Z" fill="#F5F5E0"/>
<path d="M139.355 113.565H147.027V121.238H139.355V113.565Z" fill="#F5F5E0"/>
<path d="M154.699 113.565H162.371V121.238H154.699V113.565Z" fill="#F5F5E0"/>
<path d="M124.01 128.91H131.682V136.582H124.01V128.91Z" fill="#F5F5E0"/>
<path d="M139.355 128.91H147.027V136.582H139.355V128.91Z" fill="#F5F5E0"/>
<path d="M154.699 128.91H162.371V136.582H154.699V128.91Z" fill="#F5F5E0"/>
<path d="M146.473 19.8568L155.818 15.6519L156.752 10.7461L160.023 6.07385L170.068 2.5697L181.281 5.13941L186.187 16.3527H189.925L199.269 20.7913L203.241 30.8365L197.4 39.9473L192.495 47.6564L182.683 49.7589L167.031 47.6564L159.088 41.5826L147.875 39.9473L143.203 31.771L146.473 19.8568Z" fill="#F5F5E0"/>
<path d="M141.1 29.0067C141.1 25.5077 142.203 22.3761 144.407 19.6119C146.611 16.8477 149.405 15.0924 152.787 14.3459C153.744 10.1471 155.895 6.70642 159.243 4.02385C162.59 1.34128 166.422 0 170.737 0C174.936 0 178.691 1.31213 182.004 3.93638C185.316 6.56063 187.462 9.90218 188.442 13.961H189.457C193.656 13.961 197.236 15.4248 200.199 18.3523C203.161 21.2798 204.642 24.8313 204.642 29.0067C204.642 31.2461 204.182 33.363 203.26 35.3574C202.339 37.3519 201.062 39.0606 199.429 40.4835V40.5884C199.429 42.8045 198.735 44.7814 197.347 46.5193C195.959 48.2571 194.215 49.3593 192.116 49.8258C191.579 52.1585 190.448 54.1296 188.722 55.7391C186.996 57.3487 184.966 58.3401 182.634 58.7133C183.707 59.9963 184.243 61.4075 184.243 62.9471C184.243 64.7432 183.608 66.2828 182.336 67.5658C181.065 68.8487 179.531 69.4902 177.735 69.4902C175.939 69.4902 174.405 68.8487 173.134 67.5658C171.863 66.2828 171.227 64.7432 171.227 62.9471C171.227 62.224 171.355 61.5125 171.612 60.8127H171.227C169.058 60.8127 167.191 60.0312 165.628 58.4684C164.066 56.9055 163.284 55.0393 163.284 52.87C163.284 51.377 163.657 50.0474 164.404 48.8811C162.468 47.8081 161.068 46.2568 160.205 44.2274H155.446V44.1924C151.434 43.9358 148.04 42.3496 145.264 39.4338C142.488 36.5179 141.1 33.0423 141.1 29.0067ZM146.314 28.097C146.314 31.0828 147.364 33.6254 149.463 35.7248C151.562 37.8242 154.093 38.8739 157.056 38.8739C158.899 38.8739 160.602 38.4541 162.164 37.6143C162.608 40.3902 163.902 42.6995 166.048 44.5423C168.194 46.3851 170.714 47.3065 173.606 47.3065C176.849 47.3065 179.613 46.1635 181.899 43.8775C183.438 45.6503 185.351 46.5368 187.637 46.5368C189.76 46.5368 191.574 45.7845 193.078 44.2799C194.583 42.7753 195.335 40.9617 195.335 38.8389C196.828 37.8359 198.006 36.5471 198.869 34.9725C199.732 33.398 200.164 31.6893 200.164 29.8465C200.164 26.884 199.102 24.3706 196.98 22.3062C194.857 20.2417 192.303 19.2095 189.317 19.2095C187.241 19.2095 185.34 19.7577 183.613 20.8541C183.823 19.9443 183.928 18.9646 183.928 17.9149C183.928 14.3226 182.645 11.2668 180.079 8.74751C177.513 6.22823 174.411 4.96859 170.772 4.96859C167.273 4.96859 164.252 6.18157 161.71 8.60755C159.167 11.0335 157.837 13.9844 157.721 17.46C157.651 17.46 157.546 17.4542 157.406 17.4425C157.266 17.4309 157.149 17.425 157.056 17.425C154.117 17.425 151.592 18.4689 149.481 20.5567C147.37 22.6444 146.314 25.1578 146.314 28.097Z" fill="#0C9FBF"/>
<path d="M183.196 28.8907H173.883V19.5772C173.883 19.4626 173.789 19.3688 173.674 19.3688H172.997C171.631 19.3675 170.277 19.6359 169.015 20.1588C167.752 20.6817 166.605 21.4488 165.64 22.416C164.689 23.3636 163.932 24.487 163.41 25.7237C162.869 27.0077 162.593 28.3698 162.593 29.7762C162.593 31.1826 162.869 32.5421 163.41 33.8261C163.934 35.0632 164.684 36.1779 165.64 37.1337C166.596 38.0895 167.708 38.8396 168.947 39.3631C170.229 39.9069 171.608 40.1859 173 40.1835C174.366 40.1849 175.72 39.9164 176.982 39.3935C178.245 38.8706 179.392 38.1035 180.357 37.1363C181.313 36.1805 182.063 35.0684 182.587 33.8287C183.131 32.5469 183.41 31.1685 183.407 29.7762V29.099C183.405 28.9844 183.311 28.8907 183.196 28.8907ZM185.486 27.4452L185.418 26.7108C185.196 24.3147 184.134 22.054 182.42 20.3481C180.708 18.6374 178.452 17.5789 176.042 17.3556L175.305 17.2879C175.182 17.2775 175.078 17.3712 175.078 17.4937V27.4869C175.078 27.6015 175.172 27.6952 175.287 27.6952L185.277 27.6692C185.4 27.6666 185.496 27.565 185.486 27.4452Z" fill="#FFC107"/>
<path d="M9.73815 142.231H6.85419C6.25604 142.231 5.95696 141.932 5.95696 141.333V101.919C5.95696 101.321 6.25604 101.022 6.85419 101.022H21.8508C24.7988 101.022 27.106 101.877 28.7723 103.586C30.4386 105.252 31.2717 107.559 31.2717 110.507V117.621C31.2717 120.612 30.4386 122.94 28.7723 124.607C27.106 126.273 24.7988 127.106 21.8508 127.106H11.2763C10.849 127.106 10.6354 127.298 10.6354 127.683V141.333C10.6354 141.932 10.3363 142.231 9.73815 142.231ZM11.2763 122.94H21.2099C24.7988 122.94 26.5933 121.103 26.5933 117.429V110.699C26.5933 106.982 24.7988 105.124 21.2099 105.124H11.2763C10.849 105.124 10.6354 105.316 10.6354 105.701V122.363C10.6354 122.748 10.849 122.94 11.2763 122.94ZM43.1515 142.231H40.2675C39.6694 142.231 39.3703 141.932 39.3703 141.333V98.0741C39.3703 97.476 39.6694 97.1769 40.2675 97.1769H43.1515C43.7497 97.1769 44.0487 97.476 44.0487 98.0741V141.333C44.0487 141.932 43.7497 142.231 43.1515 142.231ZM67.55 142.231H62.0384C59.0904 142.231 56.7618 141.398 55.0528 139.731C53.3865 138.065 52.5534 135.736 52.5534 132.746V119.031C52.5534 116.04 53.3865 113.712 55.0528 112.045C56.7618 110.379 59.0904 109.546 62.0384 109.546H67.55C70.498 109.546 72.8052 110.379 74.4715 112.045C76.1805 113.712 77.035 116.04 77.035 119.031V132.746C77.035 135.736 76.1805 138.065 74.4715 139.731C72.8052 141.398 70.498 142.231 67.55 142.231ZM62.5511 138.129H67.0373C70.6262 138.129 72.4207 136.292 72.4207 132.618V119.159C72.4207 115.485 70.6262 113.647 67.0373 113.647H62.5511C58.9622 113.647 57.1677 115.485 57.1677 119.159V132.618C57.1677 136.292 58.9622 138.129 62.5511 138.129ZM86.4559 113.647H82.9311C82.3329 113.647 82.0339 113.37 82.0339 112.814V110.443C82.0339 109.845 82.3329 109.546 82.9311 109.546H86.4559C86.8832 109.546 87.0968 109.354 87.0968 108.969V103.458C87.0968 102.859 87.3959 102.56 87.994 102.56H90.878C91.4334 102.56 91.7111 102.859 91.7111 103.458V108.969C91.7111 109.354 91.9461 109.546 92.4161 109.546H99.2094C99.8503 109.546 100.171 109.845 100.171 110.443V112.814C100.171 113.37 99.8503 113.647 99.2094 113.647H92.4161C91.9461 113.647 91.7111 113.84 91.7111 114.224V132.682C91.7111 136.313 93.5911 138.129 97.3509 138.129H99.8503C100.491 138.129 100.812 138.428 100.812 139.026V141.398C100.812 141.953 100.491 142.231 99.8503 142.231H96.7741C93.826 142.231 91.4762 141.419 89.7244 139.795C87.9727 138.129 87.0968 135.822 87.0968 132.874V114.224C87.0968 113.84 86.8832 113.647 86.4559 113.647ZM209.637 142.231H206.754C206.155 142.231 205.856 141.932 205.856 141.333V101.919C205.856 101.321 206.155 101.022 206.754 101.022H226.685C227.283 101.022 227.582 101.321 227.582 101.919V104.227C227.582 104.825 227.283 105.124 226.685 105.124H211.176C210.748 105.124 210.535 105.316 210.535 105.701V119.672C210.535 120.056 210.748 120.249 211.176 120.249H224.89C225.489 120.249 225.788 120.548 225.788 121.146V123.453C225.788 124.051 225.489 124.35 224.89 124.35H211.176C210.748 124.35 210.535 124.564 210.535 124.991V141.333C210.535 141.932 210.236 142.231 209.637 142.231ZM246.682 142.231H243.35C240.402 142.231 238.073 141.398 236.364 139.731C234.698 138.065 233.865 135.736 233.865 132.746V119.031C233.865 116.04 234.698 113.712 236.364 112.045C238.073 110.379 240.402 109.546 243.35 109.546H257.257C257.855 109.546 258.154 109.845 258.154 110.443V141.333C258.154 141.932 257.855 142.231 257.257 142.231H254.373C253.775 142.231 253.476 141.932 253.476 141.333V138.834H253.219C252.151 141.098 249.972 142.231 246.682 142.231ZM253.476 132.233V114.224C253.476 113.84 253.262 113.647 252.835 113.647H243.862C240.316 113.647 238.543 115.506 238.543 119.223V132.553C238.543 136.271 240.316 138.129 243.862 138.129H247.515C249.438 138.129 250.912 137.616 251.938 136.591C252.963 135.566 253.476 134.113 253.476 132.233ZM286.022 139.026V141.398C286.022 141.953 285.723 142.231 285.125 142.231H275.832C272.884 142.231 270.555 141.398 268.846 139.731C267.18 138.065 266.347 135.736 266.347 132.746V119.031C266.347 116.04 267.18 113.712 268.846 112.045C270.555 110.379 272.884 109.546 275.832 109.546H285.125C285.723 109.546 286.022 109.845 286.022 110.443V112.814C286.022 113.37 285.723 113.647 285.125 113.647H276.345C272.798 113.647 271.025 115.506 271.025 119.223V132.553C271.025 136.271 272.798 138.129 276.345 138.129H285.125C285.723 138.129 286.022 138.428 286.022 139.026ZM293.803 113.647H290.278C289.68 113.647 289.381 113.37 289.381 112.814V110.443C289.381 109.845 289.68 109.546 290.278 109.546H293.803C294.23 109.546 294.444 109.354 294.444 108.969V103.458C294.444 102.859 294.743 102.56 295.341 102.56H298.225C298.78 102.56 299.058 102.859 299.058 103.458V108.969C299.058 109.354 299.293 109.546 299.763 109.546H306.556C307.197 109.546 307.518 109.845 307.518 110.443V112.814C307.518 113.37 307.197 113.647 306.556 113.647H299.763C299.293 113.647 299.058 113.84 299.058 114.224V132.682C299.058 136.313 300.938 138.129 304.698 138.129H307.197C307.838 138.129 308.159 138.428 308.159 139.026V141.398C308.159 141.953 307.838 142.231 307.197 142.231H304.121C301.173 142.231 298.823 141.419 297.071 139.795C295.32 138.129 294.444 135.822 294.444 132.874V114.224C294.444 113.84 294.23 113.647 293.803 113.647ZM329.284 142.231H323.773C320.825 142.231 318.496 141.398 316.787 139.731C315.121 138.065 314.288 135.736 314.288 132.746V119.031C314.288 116.04 315.121 113.712 316.787 112.045C318.496 110.379 320.825 109.546 323.773 109.546H329.284C332.232 109.546 334.539 110.379 336.206 112.045C337.915 113.712 338.769 116.04 338.769 119.031V132.746C338.769 135.736 337.915 138.065 336.206 139.731C334.539 141.398 332.232 142.231 329.284 142.231ZM324.285 138.129H328.771C332.36 138.129 334.155 136.292 334.155 132.618V119.159C334.155 115.485 332.36 113.647 328.771 113.647H324.285C320.696 113.647 318.902 115.485 318.902 119.159V132.618C318.902 136.292 320.696 138.129 324.285 138.129ZM350.754 142.231H347.87C347.272 142.231 346.972 141.932 346.972 141.333V110.443C346.972 109.845 347.272 109.546 347.87 109.546H350.754C351.352 109.546 351.651 109.845 351.651 110.443V113.007H351.907C352.334 112.067 353.146 111.255 354.343 110.571C355.539 109.888 356.949 109.546 358.572 109.546H361.072C361.627 109.546 361.905 109.845 361.905 110.443V112.814C361.905 113.113 361.841 113.348 361.713 113.519C361.585 113.647 361.371 113.69 361.072 113.647H357.611C355.688 113.647 354.214 114.224 353.189 115.378C352.164 116.531 351.651 118.112 351.651 120.12V141.333C351.651 141.932 351.352 142.231 350.754 142.231ZM370.316 152.293H367.496C366.898 152.293 366.599 151.993 366.599 151.395V149.024C366.599 148.426 366.898 148.127 367.496 148.127H369.098C371.833 148.127 373.755 147.358 374.866 145.82C375.763 144.581 376.575 142.808 377.302 140.5H375.443C374.93 140.5 374.567 140.201 374.354 139.603L364.933 110.443C364.762 109.845 364.975 109.546 365.573 109.546H368.65C369.205 109.546 369.568 109.845 369.739 110.443L378.007 136.847H378.263L386.53 110.443C386.658 109.845 387 109.546 387.556 109.546H390.504C391.23 109.546 391.486 109.866 391.273 110.507L381.724 140.949C380.656 144.581 379.288 147.379 377.622 149.344C375.998 151.31 373.563 152.293 370.316 152.293Z" fill="#0C9FBF"/>
</svg>
