<svg width="89" height="145" viewBox="0 0 89 145" fill="none" xmlns="http://www.w3.org/2000/svg">
<path d="M54.0435 105.893H46.3713V94.3846L23.3546 105.893V94.3846L0.33783 105.893V144.254H54.0435V105.893Z" fill="#27BBDC"/>
<path d="M69.7717 71.3678H55.7698L52.1255 144.254H73.2242L69.7717 71.3678Z" fill="#0C9FBF"/>
<path d="M8.01007 113.565H15.6823V121.238H8.01007V113.565Z" fill="#F5F5E0"/>
<path d="M23.3546 113.565H31.0268V121.238H23.3546V113.565Z" fill="#F5F5E0"/>
<path d="M38.699 113.565H46.3712V121.238H38.699V113.565Z" fill="#F5F5E0"/>
<path d="M8.01007 128.91H15.6823V136.582H8.01007V128.91Z" fill="#F5F5E0"/>
<path d="M23.3546 128.91H31.0268V136.582H23.3546V128.91Z" fill="#F5F5E0"/>
<path d="M38.699 128.91H46.3712V136.582H38.699V128.91Z" fill="#F5F5E0"/>
<path d="M30.4735 19.8568L39.8179 15.6519L40.7523 10.7461L44.0229 6.07385L54.0681 2.5697L65.2814 5.13941L70.1872 16.3527H73.9249L83.2693 20.7913L87.2407 30.8365L81.4005 39.9473L76.4947 47.6564L66.683 49.7589L51.0312 47.6564L43.0884 41.5826L31.8751 39.9473L27.2029 31.771L30.4735 19.8568Z" fill="#F5F5E0"/>
<path d="M25.1005 29.0067C25.1005 25.5077 26.2027 22.3761 28.407 19.6119C30.6114 16.8477 33.4048 15.0924 36.7871 14.3459C37.7435 10.1471 39.8954 6.70642 43.2428 4.02385C46.5902 1.34128 50.4216 0 54.737 0C58.9358 0 62.6914 1.31213 66.0038 3.93638C69.3162 6.56063 71.4623 9.90218 72.442 13.961H73.4567C77.6555 13.961 81.2362 15.4248 84.1987 18.3523C87.1611 21.2798 88.6424 24.8313 88.6424 29.0067C88.6424 31.2461 88.1817 33.363 87.2603 35.3574C86.3389 37.3519 85.0617 39.0606 83.4289 40.4835V40.5884C83.4289 42.8045 82.7349 44.7814 81.347 46.5193C79.959 48.2571 78.2154 49.3593 76.116 49.8258C75.5794 52.1585 74.4481 54.1296 72.7219 55.7391C70.9957 57.3487 68.9663 58.3401 66.6336 58.7133C67.7067 59.9963 68.2432 61.4075 68.2432 62.9471C68.2432 64.7432 67.6075 66.2828 66.3362 67.5658C65.0649 68.8487 63.5312 69.4902 61.735 69.4902C59.9389 69.4902 58.4052 68.8487 57.1339 67.5658C55.8625 66.2828 55.2269 64.7432 55.2269 62.9471C55.2269 62.224 55.3552 61.5125 55.6118 60.8127H55.2269C53.0575 60.8127 51.1914 60.0312 49.6285 58.4684C48.0656 56.9055 47.2842 55.0393 47.2842 52.87C47.2842 51.377 47.6574 50.0474 48.4038 48.8811C46.4677 47.8081 45.0681 46.2568 44.205 44.2274H39.4464V44.1924C35.4342 43.9358 32.0402 42.3496 29.2643 39.4338C26.4884 36.5179 25.1005 33.0423 25.1005 29.0067ZM30.314 28.097C30.314 31.0828 31.3637 33.6254 33.4631 35.7248C35.5625 37.8242 38.0934 38.8739 41.0559 38.8739C42.8987 38.8739 44.6016 38.4541 46.1645 37.6143C46.6077 40.3902 47.9023 42.6995 50.0484 44.5423C52.1944 46.3851 54.7137 47.3065 57.6062 47.3065C60.8486 47.3065 63.6128 46.1635 65.8989 43.8775C67.4384 45.6503 69.3512 46.5368 71.6372 46.5368C73.76 46.5368 75.5736 45.7845 77.0782 44.2799C78.5827 42.7753 79.335 40.9617 79.335 38.8389C80.8279 37.8359 82.0059 36.5471 82.869 34.9725C83.7321 33.398 84.1637 31.6893 84.1637 29.8465C84.1637 26.884 83.1023 24.3706 80.9796 22.3062C78.8568 20.2417 76.3026 19.2095 73.3167 19.2095C71.2407 19.2095 69.3395 19.7577 67.6134 20.8541C67.8233 19.9443 67.9283 18.9646 67.9283 17.9149C67.9283 14.3226 66.6453 11.2668 64.0794 8.74751C61.5134 6.22823 58.411 4.96859 54.772 4.96859C51.273 4.96859 48.2522 6.18157 45.7096 8.60755C43.167 11.0335 41.8374 13.9844 41.7207 17.46C41.6508 17.46 41.5458 17.4542 41.4058 17.4425C41.2659 17.4309 41.1492 17.425 41.0559 17.425C38.1168 17.425 35.5916 18.4689 33.4806 20.5567C31.3695 22.6444 30.314 25.1578 30.314 28.097Z" fill="#0C9FBF"/>
<path d="M67.1962 28.8907H57.8828V19.5772C57.8828 19.4626 57.789 19.3688 57.6744 19.3688H56.9973C55.6307 19.3675 54.2772 19.6359 53.0147 20.1588C51.7521 20.6817 50.6052 21.4488 49.6397 22.416C48.6892 23.3636 47.932 24.487 47.4103 25.7237C46.8686 27.0077 46.5925 28.3698 46.5925 29.7762C46.5925 31.1826 46.8686 32.5421 47.4103 33.8261C47.9338 35.0632 48.6839 36.1779 49.6397 37.1337C50.5956 38.0895 51.7076 38.8396 52.9474 39.3631C54.2291 39.9069 55.6075 40.1859 56.9999 40.1835C58.3665 40.1849 59.7199 39.9164 60.9825 39.3935C62.2451 38.8706 63.392 38.1035 64.3574 37.1363C65.3132 36.1805 66.0633 35.0684 66.5868 33.8287C67.1306 32.5469 67.4096 31.1685 67.4072 29.7762V29.099C67.4046 28.9844 67.3108 28.8907 67.1962 28.8907ZM69.4855 27.4452L69.4178 26.7108C69.1964 24.3147 68.1338 22.054 66.4201 20.3481C64.708 18.6374 62.4518 17.5789 60.0418 17.3556L59.3048 17.2879C59.1824 17.2775 59.0782 17.3712 59.0782 17.4937V27.4869C59.0782 27.6015 59.172 27.6952 59.2866 27.6952L69.2772 27.6692C69.3996 27.6666 69.496 27.565 69.4855 27.4452Z" fill="#FFC107"/>
</svg>
